<svg width="51" height="51" viewBox="0 0 51 51" fill="none" xmlns="http://www.w3.org/2000/svg">
<circle cx="25.5" cy="25.5" r="25.5" fill="#06382A"/>
<path d="M37.2836 35.1899H27.9561C27.0448 32.4421 26.5892 29.5944 26.5892 26.6468C26.5892 23.6493 27.4201 21.2762 29.0819 19.5276C30.7973 17.7291 33.3167 16.8298 36.6403 16.8298V21.0264C33.96 21.0264 32.6199 22.5502 32.6199 25.5977V27.0215H37.2836V35.1899ZM23.6944 35.1899H14.367C13.4557 32.4421 13 29.5944 13 26.6468C13 23.6493 13.8309 21.2762 15.4927 19.5276C17.2081 17.7291 19.7276 16.8298 23.0512 16.8298V21.0264C20.3709 21.0264 19.0307 22.5502 19.0307 25.5977V27.0215H23.6944V35.1899Z" fill="white"/>
</svg>
