<svg width="19" height="19" viewBox="0 0 19 19" fill="none" xmlns="http://www.w3.org/2000/svg">
<path d="M18.5318 9.25026C18.5318 8.65468 18.4768 8.08926 18.3826 7.53892H9.50861V10.939H14.5895C14.3618 12.0547 13.6943 12.9971 12.7048 13.6379V15.8996H15.7361C17.5109 14.324 18.5318 12.002 18.5318 9.25026Z" fill="white"/>
<path d="M9.50861 3.58099C10.8986 3.58099 12.1394 4.04086 13.121 4.938L15.8068 2.35968C14.1812 0.897133 12.053 0 9.50861 0C5.82554 0 2.64505 2.03551 1.098 4.99077L4.22352 7.3203C4.96955 5.1717 7.05061 3.58099 9.50861 3.58099Z" fill="white"/>
<path fill-rule="evenodd" clip-rule="evenodd" d="M9.50861 18.0934C5.82554 18.0934 2.64505 16.0579 1.098 13.1026L4.22352 10.7731C4.96955 12.9217 7.05061 14.5124 9.50861 14.5124C10.7808 14.5124 11.8567 14.1807 12.7048 13.6379L15.7361 15.8996C14.1812 17.2792 12.053 18.0934 9.50861 18.0934ZM4.22352 7.3203V4.99077H1.098L4.22352 7.3203Z" fill="white"/>
<path d="M1.098 10.7731H4.22352C4.02719 10.2303 3.9251 9.64982 3.9251 9.04671C3.9251 8.44359 4.03504 7.8631 4.22352 7.3203L1.098 4.99077C0.454053 6.21207 0.0849609 7.58416 0.0849609 9.04671C0.0849609 10.5093 0.454053 11.8813 1.098 13.1026V10.7731Z" fill="white"/>
<path d="M4.22352 10.7731H1.098V13.1026L4.22352 10.7731Z" fill="white"/>
</svg>
