<svg width="20" height="19" viewBox="0 0 20 19" fill="none" xmlns="http://www.w3.org/2000/svg">
<path fill-rule="evenodd" clip-rule="evenodd" d="M10.3084 0.902756C7.74895 0.902756 7.42855 0.913009 6.42336 0.957036C5.42006 1.00106 4.73464 1.15425 4.1353 1.37801C3.50705 1.60478 2.93724 1.96062 2.46605 2.4214C1.98684 2.87321 1.61595 3.41985 1.37919 4.02327C1.14737 4.59864 0.987169 5.25724 0.941308 6.22041C0.896074 7.18479 0.884766 7.49177 0.884766 9.94946C0.884766 12.4072 0.895446 12.7141 0.941308 13.6791C0.987169 14.6423 1.14674 15.3003 1.37982 15.8757C1.61604 16.4788 1.9867 17.0258 2.46668 17.4781C2.93733 17.9382 3.50675 18.2942 4.1353 18.5215C4.73464 18.7447 5.42006 18.8979 6.42336 18.9419C7.42855 18.9859 7.74895 18.9962 10.3084 18.9962C12.8679 18.9962 13.1883 18.9859 14.1935 18.9419C15.1968 18.8979 15.8822 18.7447 16.4815 18.5209C17.1098 18.2941 17.6796 17.9383 18.1508 17.4775C18.63 17.0257 19.0009 16.4791 19.2376 15.8757C19.4701 15.3003 19.6297 14.6423 19.6755 13.6791C19.7214 12.7141 19.7321 12.4065 19.7321 9.94946C19.7321 7.49238 19.7214 7.18479 19.6755 6.21981C19.6297 5.25663 19.4701 4.59864 19.237 4.02327C19.0004 3.41959 18.6295 2.87272 18.1502 2.42079C17.6795 1.96075 17.1101 1.60469 16.4815 1.37741C15.8822 1.15486 15.1962 1.00106 14.1928 0.957036C13.1883 0.913612 12.8685 0.902756 10.3084 0.902756ZM10.3084 2.53297C12.8245 2.53297 13.123 2.54202 14.1168 2.58544C15.0353 2.62585 15.5341 2.77241 15.8665 2.89725C16.3063 3.0607 16.6204 3.25731 16.9502 3.57334C17.28 3.88998 17.4842 4.19154 17.6545 4.61372C17.7839 4.93276 17.9372 5.41163 17.9793 6.29339C18.0245 7.24751 18.0339 7.53399 18.0339 9.94946C18.0339 12.3649 18.0245 12.6514 17.9793 13.6055C17.9372 14.4873 17.7845 14.9662 17.6545 15.2852C17.5037 15.6782 17.263 16.0337 16.9502 16.3256C16.6462 16.6259 16.2759 16.857 15.8665 17.0017C15.5341 17.1259 15.0353 17.2731 14.1168 17.3135C13.123 17.3569 12.8252 17.366 10.3084 17.366C7.79168 17.366 7.49389 17.3569 6.50001 17.3135C5.58151 17.2731 5.08269 17.1265 4.75035 17.0017C4.34102 16.8569 3.9707 16.6259 3.66663 16.3256C3.35387 16.0336 3.11323 15.6781 2.96237 15.2852C2.83295 14.9662 2.67966 14.4873 2.63757 13.6055C2.59233 12.6514 2.58291 12.3649 2.58291 9.94946C2.58291 7.53399 2.59233 7.24751 2.63757 6.29339C2.67966 5.41163 2.83232 4.93276 2.96237 4.61372C3.13262 4.19154 3.33743 3.88998 3.66663 3.57334C3.97066 3.27302 4.34099 3.04199 4.75035 2.89725C5.08269 2.77301 5.58151 2.62585 6.50001 2.58544C7.49389 2.54202 7.7923 2.53297 10.3084 2.53297Z" fill="white"/>
<path fill-rule="evenodd" clip-rule="evenodd" d="M10.3084 12.968C9.89551 12.968 9.48663 12.89 9.10514 12.7383C8.72365 12.5866 8.37702 12.3642 8.08504 12.0839C7.79306 11.8036 7.56144 11.4709 7.40342 11.1046C7.24541 10.7384 7.16407 10.3459 7.16407 9.94946C7.16407 9.55306 7.24541 9.16053 7.40342 8.7943C7.56144 8.42807 7.79306 8.0953 8.08504 7.815C8.37702 7.5347 8.72365 7.31235 9.10514 7.16065C9.48663 7.00896 9.89551 6.93088 10.3084 6.93088C11.1424 6.93088 11.9422 7.24891 12.5318 7.815C13.1215 8.3811 13.4528 9.14888 13.4528 9.94946C13.4528 10.75 13.1215 11.5178 12.5318 12.0839C11.9422 12.65 11.1424 12.968 10.3084 12.968ZM10.3084 5.29946C9.02379 5.29946 7.79176 5.78937 6.88338 6.66141C5.975 7.53346 5.46468 8.7162 5.46468 9.94946C5.46468 11.1827 5.975 12.3655 6.88338 13.2375C7.79176 14.1096 9.02379 14.5995 10.3084 14.5995C11.5931 14.5995 12.8251 14.1096 13.7335 13.2375C14.6419 12.3655 15.1522 11.1827 15.1522 9.94946C15.1522 8.7162 14.6419 7.53346 13.7335 6.66141C12.8251 5.78937 11.5931 5.29946 10.3084 5.29946ZM16.5613 5.21502C16.5613 5.50654 16.4407 5.78612 16.226 5.99225C16.0113 6.19839 15.72 6.31419 15.4164 6.31419C15.1127 6.31419 14.8215 6.19839 14.6067 5.99225C14.392 5.78612 14.2714 5.50654 14.2714 5.21502C14.2714 4.9235 14.392 4.64392 14.6067 4.43779C14.8215 4.23165 15.1127 4.11584 15.4164 4.11584C15.72 4.11584 16.0113 4.23165 16.226 4.43779C16.4407 4.64392 16.5613 4.9235 16.5613 5.21502Z" fill="white"/>
</svg>
