<svg width="63" height="62" viewBox="0 0 63 62" fill="none" xmlns="http://www.w3.org/2000/svg">
<path d="M37.6345 25.9157C34.1264 29.4238 28.4327 29.4238 24.9247 25.9157C24.2267 25.2178 23.6757 24.4464 23.2533 23.6015C21.5452 20.222 22.1145 16.0161 24.9247 13.1876C27.3858 10.7264 30.8939 9.99177 33.9978 10.9652C34.7509 11.204 35.4672 11.5346 36.1467 11.9754C36.6794 12.3243 37.1753 12.71 37.6345 13.1692C37.8732 13.408 38.0753 13.6467 38.2773 13.8855C41.1241 17.4119 40.9221 22.6097 37.6345 25.879V25.9157Z" fill="#E08B26"/>
<path d="M25.3285 25.5302C25.3285 25.5302 25.2551 25.4568 25.1265 25.3282C25.053 25.2547 24.9796 25.1813 24.8877 25.0711C24.8326 25.016 24.7959 24.9609 24.7408 24.9058C24.6857 24.8507 24.6306 24.7772 24.5755 24.7037C24.3551 24.4098 24.098 24.0609 23.8408 23.6201C23.5837 23.1793 23.3449 22.6466 23.1612 22.0589C22.9776 21.4528 22.849 20.7916 22.7939 20.0753C22.7755 19.708 22.7572 19.3406 22.7939 18.9733C22.8123 18.5876 22.8674 18.2202 22.9408 17.8345C23.1061 17.0631 23.3817 16.2917 23.7674 15.5571C23.951 15.1897 24.1898 14.8408 24.4286 14.4918C24.6857 14.1612 24.9612 13.8306 25.2551 13.5367C25.5489 13.2429 25.8795 12.9674 26.2101 12.7286C26.5591 12.4898 26.9081 12.2511 27.2754 12.0674C28.0101 11.6817 28.7815 11.4062 29.5529 11.2409C30.3243 11.0756 31.0957 11.0389 31.812 11.094C32.5283 11.1491 33.2079 11.2776 33.7956 11.4613C34.4017 11.6449 34.916 11.8837 35.3568 12.1409C35.7976 12.3796 36.1649 12.6551 36.4404 12.8755C36.5139 12.9306 36.5873 12.9857 36.6424 13.0408C36.6975 13.0959 36.7526 13.151 36.8077 13.1878C36.9179 13.2796 37.0098 13.3531 37.0649 13.4265C37.2118 13.5551 37.2669 13.6286 37.2669 13.6286C37.2669 13.6286 37.1934 13.5551 37.0465 13.4265C36.973 13.3531 36.8812 13.2796 36.771 13.1878C36.7159 13.151 36.6608 13.0959 36.5873 13.0408C36.5139 12.9857 36.4588 12.949 36.3853 12.8939C36.0914 12.6735 35.7241 12.4347 35.2833 12.2143C34.8425 11.9756 34.3099 11.7735 33.7221 11.5899C33.1344 11.4246 32.4732 11.296 31.7753 11.2593C31.4263 11.2593 31.059 11.2593 30.6916 11.2776C30.508 11.2776 30.3243 11.3143 30.1406 11.3327C30.0488 11.3327 29.9569 11.3695 29.8651 11.3878C29.7733 11.3878 29.6814 11.4246 29.5896 11.4429C28.8366 11.6082 28.0835 11.8837 27.3856 12.2511C27.0366 12.4347 26.6877 12.6551 26.3571 12.9123C26.0265 13.151 25.7326 13.4265 25.4387 13.7204C25.1632 14.0143 24.8877 14.3081 24.6306 14.6387C24.3918 14.9693 24.1714 15.2999 23.9694 15.6673C23.5837 16.3836 23.3082 17.1182 23.1612 17.8713C23.0878 18.2386 23.0327 18.6243 22.9959 18.9917C22.9592 19.359 22.9592 19.7263 22.9776 20.0753C23.0143 20.7732 23.1245 21.4344 23.3082 22.0222C23.4919 22.6099 23.6939 23.1425 23.9327 23.5833C24.1531 24.0241 24.4102 24.3915 24.6122 24.6853C24.6673 24.7588 24.7224 24.8323 24.7592 24.8874C24.8143 24.9425 24.851 25.016 24.9061 25.0711C24.9979 25.1813 25.0714 25.2731 25.1449 25.3465C25.2734 25.4935 25.3469 25.5669 25.3469 25.5669L25.3285 25.5302Z" fill="#FFCE07"/>
<path d="M36.7893 14.0882C36.7893 14.0882 36.8628 14.1617 36.973 14.2719C37.0464 14.327 37.1199 14.4188 37.1934 14.5107C37.2301 14.5658 37.2852 14.6025 37.3403 14.6576C37.3954 14.7127 37.4321 14.7862 37.4872 14.8413C37.6893 15.0984 37.928 15.429 38.1668 15.8331C38.4056 16.2372 38.626 16.7147 38.7913 17.2657C38.9749 17.8167 39.0851 18.4228 39.1402 19.084C39.177 19.7452 39.1402 20.4431 38.9933 21.1594C38.8464 21.8757 38.5892 22.5737 38.2403 23.2533C38.0566 23.5839 37.8546 23.9145 37.6342 24.2267C37.3954 24.5389 37.1566 24.8328 36.8811 25.1083C36.6056 25.3654 36.3118 25.6226 35.9995 25.8613C35.6873 26.0817 35.3751 26.3021 35.0261 26.4674C34.3465 26.8164 33.6486 27.0735 32.9323 27.2205C32.2343 27.3674 31.518 27.4041 30.8568 27.3674C30.1956 27.3123 29.5895 27.2021 29.0385 27.0184C28.4875 26.8531 28.01 26.6144 27.6059 26.394C27.2019 26.1736 26.8713 25.9348 26.6141 25.7144C26.5407 25.6593 26.4856 25.6042 26.4305 25.5675C26.3754 25.5124 26.3203 25.4756 26.2835 25.4205C26.1917 25.3287 26.0999 25.2552 26.0448 25.2001C25.9162 25.0716 25.8611 25.0165 25.8611 25.0165C25.8611 25.0165 25.9346 25.0716 26.0631 25.2001C26.1366 25.2552 26.2101 25.3287 26.3203 25.4022C26.4121 25.494 26.5407 25.5675 26.6692 25.6777C26.9447 25.8797 27.2753 26.1001 27.6794 26.3021C28.0835 26.5042 28.561 26.7062 29.112 26.8715C29.6446 27.0368 30.2507 27.1286 30.8936 27.1654C31.2058 27.1654 31.5548 27.1654 31.8854 27.147C32.0507 27.147 32.216 27.1103 32.3996 27.0919C32.5649 27.0552 32.7486 27.0368 32.9139 27.0001C33.5935 26.8531 34.2914 26.596 34.9343 26.247C35.2649 26.0817 35.5587 25.8613 35.871 25.6409C36.1648 25.4205 36.4403 25.1818 36.7158 24.9063C36.973 24.6491 37.2301 24.3553 37.4505 24.0614C37.6709 23.7675 37.8729 23.4553 38.0566 23.1247C38.4056 22.4819 38.6627 21.7839 38.8096 21.1043C38.8831 20.7554 38.9382 20.4248 38.9566 20.0758C38.9933 19.7452 38.9933 19.4146 38.9749 19.084C38.9382 18.4412 38.8464 17.8351 38.6811 17.3024C38.5158 16.7698 38.3137 16.2739 38.1117 15.8698C37.9097 15.4657 37.6893 15.1168 37.4872 14.8596C37.3954 14.7311 37.3036 14.6025 37.2117 14.5107C37.1383 14.4188 37.0648 14.327 37.0097 14.2535C36.8811 14.125 36.826 14.0515 36.826 14.0515L36.7893 14.0882Z" fill="#FFCE07"/>
<g opacity="0.25">
<path d="M33.9978 10.9838C33.7774 14.1429 32.2897 21.6182 23.2533 23.6018C21.5452 20.2223 22.1145 16.0163 24.9247 13.1878C27.3858 10.7267 30.8939 9.99201 33.9978 10.9654V10.9838Z" fill="white"/>
</g>
<g opacity="0.25">
<path d="M38.2771 13.9223C34.8425 23.0323 26.0815 23.8771 26.0815 23.8771C32.6201 22.0221 35.1915 15.6488 36.1465 12.0122C36.6792 12.3612 37.1751 12.7469 37.6342 13.206C37.873 13.4448 38.075 13.6836 38.2771 13.9223Z" fill="white"/>
</g>
<path d="M38.6812 19.5619C38.6812 23.6577 35.3752 26.9637 31.2794 26.9637C28.5795 26.9637 26.2286 25.5311 24.9429 23.3822C24.2817 22.2618 23.896 20.9578 23.896 19.5803C23.896 15.5028 27.202 12.1785 31.2978 12.1785C32.2896 12.1785 33.2263 12.3805 34.0895 12.7295C34.7691 13.005 35.3752 13.3723 35.9446 13.8131C36.6609 14.4008 37.2854 15.1171 37.7445 15.9253C38.3506 17.0089 38.6996 18.2395 38.6996 19.5619H38.6812Z" fill="#FFCE07"/>
<g opacity="0.25">
<path d="M34.0712 12.7092C33.5018 16.0703 31.5366 21.3232 24.9429 23.3619C24.2817 22.2416 23.896 20.9375 23.896 19.56C23.896 15.4826 27.202 12.1582 31.2978 12.1582C32.2896 12.1582 33.2263 12.3602 34.0895 12.7092H34.0712Z" fill="white"/>
</g>
<g opacity="0.25">
<path d="M37.7262 15.9057C33.9059 23.2708 26.3572 23.9871 26.3572 23.9871C31.9958 22.3892 34.6773 17.4485 35.9263 13.7751C36.6426 14.3629 37.267 15.0792 37.7262 15.8873V15.9057Z" fill="white"/>
</g>
<path d="M36.6423 14.4559C35.3199 13.1886 33.52 12.4356 31.5547 12.4356C27.4773 12.4356 24.1529 15.7416 24.1529 19.8374C24.1529 21.821 24.9243 23.6209 26.1917 24.9434C24.7774 23.6026 23.8774 21.6924 23.8774 19.5803C23.8774 15.5028 27.1835 12.1785 31.2792 12.1785C33.3914 12.1785 35.2832 13.0601 36.6423 14.4743V14.4559Z" fill="#BB7129"/>
<path d="M31.5 61.4184C14.5658 61.4184 0.790771 47.6434 0.790771 30.7092C0.790771 13.7751 14.5658 0 31.5 0C48.4341 0 62.2092 13.7751 62.2092 30.7092C62.2092 47.6434 48.4341 61.4184 31.5 61.4184ZM31.5 1.91014C15.6127 1.91014 2.70091 14.8403 2.70091 30.7092C2.70091 46.5781 15.6311 59.5083 31.5 59.5083C47.3689 59.5083 60.2991 46.5781 60.2991 30.7092C60.2991 14.8403 47.3689 1.91014 31.5 1.91014Z" fill="white"/>
<path d="M33.5571 40.5192C33.1163 40.5192 32.749 40.1519 32.749 39.7111V37.25C32.749 35.8357 33.3 34.5133 34.2918 33.5215L38.3509 29.4624C38.81 29.0033 39.4345 28.7645 40.0773 28.8012C40.7202 28.838 41.3263 29.1502 41.7303 29.6461C42.465 30.5461 42.3548 31.9052 41.4916 32.7685L39.4345 34.8255C39.3059 34.9541 39.2508 35.101 39.2508 35.2663C39.2508 35.4316 39.3243 35.5969 39.4345 35.7071C39.6733 35.9459 40.0957 35.9459 40.3345 35.7071L42.3364 33.7052C43.016 33.0256 43.4201 32.1073 43.4568 31.1338V26.285C43.4568 25.5871 43.7323 24.9442 44.2466 24.4667C44.7608 24.0075 45.4404 23.7688 46.1384 23.8422C47.3689 23.9708 48.324 25.0728 48.324 26.3768V31.3726C48.324 32.6215 47.8832 33.8337 47.0751 34.7888L42.5017 40.1886C42.3548 40.3723 42.116 40.4641 41.8773 40.4641H33.5388V40.5009L33.5571 40.5192ZM39.9671 29.6094C39.5814 29.6094 39.1957 29.7563 38.9202 30.0318L34.8612 34.0909C34.0347 34.9174 33.5571 36.0745 33.5571 37.25V39.7111H41.8956L46.469 34.2929C47.1485 33.4848 47.5342 32.4562 47.5342 31.4093V26.3768C47.5342 25.4769 46.8914 24.7238 46.0833 24.6504C45.6241 24.5953 45.1649 24.7422 44.8159 25.0728C44.467 25.385 44.2833 25.8258 44.2833 26.2666V31.1338C44.2466 32.3277 43.769 33.4297 42.9425 34.2745L40.9406 36.2765C40.3896 36.8275 39.4345 36.8275 38.9019 36.2765C38.6264 36.001 38.4794 35.6337 38.4794 35.248C38.4794 34.8623 38.6264 34.4949 38.9019 34.2194L40.9589 32.1624C41.5283 31.593 41.6018 30.693 41.1426 30.1237C40.8671 29.7931 40.4998 29.6094 40.0773 29.5726H40.0039L39.9671 29.6094ZM29.9756 40.5376H21.6371C21.3983 40.5376 21.1779 40.4274 21.0126 40.2437L16.4577 34.8255C15.6495 33.8705 15.2087 32.6583 15.2087 31.4093V26.4136C15.2087 25.1095 16.1638 24.0075 17.3944 23.879C18.0923 23.8055 18.7719 24.0259 19.2862 24.5034C19.8004 24.9626 20.0943 25.6238 20.0943 26.3217V31.1889C20.1127 32.144 20.5167 33.0623 21.2147 33.7419L23.2166 35.7439C23.4738 36.001 23.8595 35.9826 24.1166 35.7439C24.3554 35.5051 24.3554 35.101 24.1166 34.8439L22.0595 32.7868C21.1963 31.9236 21.0861 30.5461 21.8208 29.6645C22.2432 29.1686 22.8309 28.8563 23.4738 28.8196C24.1166 28.7829 24.7411 29.0216 25.2003 29.4808L29.2593 33.5399C30.2511 34.5317 30.8021 35.8724 30.8021 37.2683V39.7295C30.8021 40.1703 30.4348 40.5376 29.994 40.5376H29.9756ZM17.6515 24.6687C17.6515 24.6687 17.5413 24.6687 17.4862 24.6687C16.6781 24.7422 16.0352 25.5136 16.0352 26.3952V31.391C16.0352 32.4562 16.4026 33.4664 17.1005 34.2745L21.6738 39.6744H30.0123V37.2316C30.0123 36.0377 29.5532 34.9174 28.7083 34.0725L24.6493 30.0134C24.3554 29.7196 23.9513 29.5726 23.5289 29.591C23.1064 29.6094 22.7207 29.8114 22.4636 30.142C21.9861 30.7114 22.0779 31.6114 22.6473 32.1807L24.7044 34.2378C25.2737 34.8072 25.2737 35.7255 24.7044 36.2765C24.135 36.8459 23.2166 36.8459 22.6656 36.2765L20.6637 34.2745C19.8372 33.448 19.3413 32.3277 19.3045 31.1522V26.2666C19.3045 25.8075 19.1209 25.3667 18.7903 25.0728C18.4964 24.7973 18.1107 24.6504 17.7066 24.6504L17.6515 24.6687Z" fill="white"/>
<path d="M41.6754 45.1847H33.3369C32.8777 45.1847 32.5288 44.8357 32.5288 44.3766V42.7603C32.5288 42.3011 32.8777 41.9521 33.3369 41.9521H41.6754C42.1346 41.9521 42.4836 42.3011 42.4836 42.7603V44.3766C42.4836 44.8357 42.1346 45.1847 41.6754 45.1847ZM33.3369 42.7419V44.3582H41.6754V42.7419H33.3369ZM30.1962 45.1847H21.8577C21.3985 45.1847 21.0496 44.8357 21.0496 44.3766V42.7603C21.0496 42.3011 21.3985 41.9521 21.8577 41.9521H30.1962C30.6554 41.9521 31.0043 42.3011 31.0043 42.7603V44.3766C31.0043 44.8357 30.6554 45.1847 30.1962 45.1847ZM21.8577 42.7419V44.3582H30.1962V42.7419H21.8577Z" fill="white"/>
</svg>
