<svg width="63" height="62" viewBox="0 0 63 62" fill="none" xmlns="http://www.w3.org/2000/svg">
<path d="M39.8938 50.6579H35.5305C34.9574 50.6579 34.4582 50.2696 34.3103 49.715L33.8665 47.9401C31.7589 48.2174 29.6512 48.2174 27.525 47.9771L27.0998 49.715C26.9519 50.2696 26.4527 50.6579 25.8796 50.6579H21.5163C20.8322 50.6579 20.2591 50.1032 20.2591 49.4007V46.1282C18.817 45.5181 17.5968 44.7786 16.5984 43.9281L16.4875 43.8357C16.395 43.7432 16.3026 43.6693 16.2101 43.5768L14.2873 41.8574C13.8436 41.4692 13.6033 40.896 13.6033 40.3044V37.4572C13.6033 36.4218 14.3428 35.5714 15.3412 35.3865L16.2101 35.2386C16.4875 33.2233 17.3194 31.4485 18.6506 29.9694L17.5413 27.9357C17.3564 27.6029 17.3379 27.2146 17.4673 26.8633C17.6153 26.5121 17.8926 26.2532 18.2439 26.1238C20.2961 25.4767 22.4962 25.5876 24.4744 26.4566C26.3787 25.8835 28.4679 25.5876 30.6865 25.5876C37.934 25.5876 43.1477 28.5088 44.7562 33.4267C44.9596 33.2788 45.126 33.0939 45.2369 32.8721C45.5142 32.3359 45.5512 31.7073 45.3663 31.1342C45.1814 30.561 44.7747 30.0988 44.22 29.8215C43.499 29.4702 43.2032 28.5828 43.5729 27.8617C43.7393 27.5104 44.0536 27.2516 44.4234 27.1222C44.7932 26.9928 45.1999 27.0297 45.5512 27.2146C46.7899 27.8247 47.7143 28.8971 48.1581 30.2282C48.6018 31.5409 48.5093 32.946 47.8807 34.1847C47.3446 35.2386 46.4386 36.0336 45.3109 36.4218C45.3109 36.5697 45.3109 36.7177 45.3109 36.8656C45.3109 40.3414 43.8688 43.2441 41.1325 45.2223V49.3822C41.1325 50.0663 40.5778 50.6394 39.8753 50.6394L39.8938 50.6579ZM34.4951 46.9972L35.1238 49.4931C35.1792 49.678 35.3456 49.8074 35.5305 49.8074H39.8938C40.1341 49.8074 40.319 49.6225 40.319 49.3822V44.7971L40.4854 44.6677C43.0922 42.8373 44.4789 40.138 44.4789 36.8656C44.4789 36.6807 44.4789 36.4958 44.4604 36.3294L44.4234 35.7747L44.8856 35.6638C44.8856 35.6638 44.9966 35.6453 45.052 35.6268C45.9764 35.3125 46.716 34.6839 47.1412 33.815C47.6589 32.7796 47.7513 31.5964 47.3816 30.4871C47.0118 29.3778 46.2353 28.4903 45.1999 27.9726C45.052 27.8987 44.8856 27.8802 44.7192 27.9357C44.5528 27.9911 44.4419 28.1021 44.3679 28.25C44.294 28.3979 44.2755 28.5643 44.331 28.7307C44.3864 28.8971 44.4974 29.008 44.6453 29.082C45.3848 29.4517 45.9395 30.0988 46.1983 30.8753C46.4571 31.6518 46.4017 32.5023 46.0319 33.2418C45.7546 33.7965 45.2739 34.2217 44.6823 34.4251L44.257 34.573L44.1461 34.1478C42.8334 29.3223 37.8231 26.4381 30.7235 26.4381C28.5234 26.4381 26.4712 26.7339 24.6039 27.3071L24.456 27.3625L24.308 27.2886C22.4777 26.4566 20.4255 26.3272 18.5397 26.9373C18.4103 26.9743 18.3178 27.0667 18.2808 27.1961C18.2254 27.3071 18.2439 27.455 18.2993 27.5474L19.7044 30.1173L19.5011 30.3392C18.096 31.7997 17.264 33.5931 17.0421 35.6638L17.0051 35.9781L15.5076 36.237C14.8975 36.3294 14.4722 36.8471 14.4722 37.4757V40.3229C14.4722 40.6742 14.6201 41.007 14.8975 41.2658L16.2656 42.486L16.7463 42.9113C17.8001 43.9096 19.2053 44.7786 20.8877 45.4812L21.1465 45.5921V49.4192C21.1465 49.6595 21.3314 49.8444 21.5718 49.8444H25.935C26.1199 49.8444 26.2863 49.715 26.3418 49.5301L26.9519 47.0896L27.3217 47.1266C29.6327 47.4039 31.9068 47.4224 34.1808 47.0711L34.5506 47.0157H34.5136L34.4951 46.9972ZM21.1096 36.4773C20.1851 36.4773 19.4456 35.7193 19.4456 34.8134C19.4456 33.9074 20.2036 33.1494 21.1096 33.1494C22.0155 33.1494 22.7735 33.9074 22.7735 34.8134C22.7735 35.7193 22.0155 36.4773 21.1096 36.4773ZM21.1096 33.9814C20.6473 33.9814 20.2776 34.3511 20.2776 34.8134C20.2776 35.2756 20.6473 35.6453 21.1096 35.6453C21.5718 35.6453 21.9415 35.2756 21.9415 34.8134C21.9415 34.3511 21.5718 33.9814 21.1096 33.9814ZM35.3271 31.5594C35.1607 31.5594 35.0128 31.5409 34.8834 31.4854C33.4043 31.0047 31.6294 30.8199 29.7806 30.9678C28.9117 31.0417 28.0797 31.1526 27.3032 31.356C26.9334 31.4485 26.5267 31.393 26.1939 31.1896C25.8611 30.9863 25.6207 30.672 25.5283 30.2837C25.3434 29.5072 25.8241 28.7122 26.6006 28.5273C27.5435 28.3054 28.5234 28.1575 29.5403 28.0651C31.8143 27.8987 33.9035 28.1206 35.7708 28.7307C36.1406 28.8416 36.4549 29.1004 36.6213 29.4517C36.7877 29.803 36.8247 30.1913 36.7138 30.5795C36.5289 31.1896 35.9557 31.5964 35.3271 31.5964V31.5594ZM30.9639 30.0803C32.4799 30.0803 33.885 30.2837 35.1238 30.6904C35.4381 30.8014 35.8078 30.598 35.9003 30.2837C35.9557 30.1173 35.9372 29.9509 35.8633 29.803C35.7893 29.6551 35.6599 29.5442 35.4935 29.4887C33.7186 28.9156 31.7404 28.7122 29.5772 28.8786C28.5974 28.9525 27.6544 29.1004 26.767 29.3038C26.4342 29.3963 26.2308 29.729 26.3048 30.0618C26.3418 30.2282 26.4527 30.3576 26.5821 30.4501C26.73 30.5425 26.8964 30.561 27.0443 30.524C27.8763 30.3207 28.7453 30.1913 29.6512 30.1173C30.0764 30.0803 30.5017 30.0618 30.9084 30.0618L30.9639 30.0803Z" fill="white"/>
<path d="M36.6582 29.1935C33.1269 32.7248 27.3955 32.7248 23.8642 29.1935C23.1617 28.491 22.607 27.7145 22.1818 26.864C20.4624 23.4621 21.0355 19.2283 23.8642 16.3811C26.3417 13.9036 29.8729 13.1641 32.9975 14.144C33.7555 14.3843 34.4766 14.7171 35.1606 15.1608C35.6968 15.5121 36.196 15.9004 36.6582 16.3626C36.8985 16.6029 37.1019 16.8433 37.3053 17.0836C40.171 20.6334 39.9676 25.8656 36.6582 29.1566V29.1935Z" fill="#E08B26"/>
<path d="M24.271 28.8052C24.271 28.8052 24.197 28.7312 24.0676 28.6018C23.9937 28.5279 23.9197 28.4539 23.8273 28.343C23.7718 28.2875 23.7348 28.232 23.6794 28.1766C23.6239 28.1211 23.5684 28.0472 23.513 27.9732C23.2911 27.6774 23.0323 27.3261 22.7734 26.8824C22.5146 26.4387 22.2742 25.9025 22.0894 25.3109C21.9045 24.7008 21.7751 24.0352 21.7196 23.3141C21.7011 22.9444 21.6826 22.5746 21.7196 22.2048C21.7381 21.8166 21.7935 21.4468 21.8675 21.0585C22.0339 20.282 22.3112 19.5055 22.6995 18.766C22.8844 18.3962 23.1247 18.0449 23.3651 17.6937C23.6239 17.3609 23.9012 17.0281 24.197 16.7323C24.4928 16.4365 24.8256 16.1591 25.1584 15.9188C25.5097 15.6784 25.861 15.4381 26.2308 15.2532C26.9703 14.8649 27.7468 14.5876 28.5233 14.4212C29.2998 14.2548 30.0763 14.2178 30.7974 14.2733C31.5184 14.3288 32.2025 14.4582 32.7941 14.6431C33.4043 14.828 33.9219 15.0683 34.3656 15.3271C34.8094 15.5675 35.1791 15.8448 35.4565 16.0667C35.5304 16.1221 35.6044 16.1776 35.6598 16.2331C35.7153 16.2885 35.7708 16.344 35.8262 16.381C35.9372 16.4734 36.0296 16.5474 36.0851 16.6213C36.233 16.7508 36.2884 16.8247 36.2884 16.8247C36.2884 16.8247 36.2145 16.7508 36.0666 16.6213C35.9926 16.5474 35.9002 16.4734 35.7893 16.381C35.7338 16.344 35.6783 16.2885 35.6044 16.2331C35.5304 16.1776 35.4749 16.1406 35.401 16.0852C35.1052 15.8633 34.7354 15.623 34.2917 15.4011C33.848 15.1608 33.3118 14.9574 32.7202 14.7725C32.1286 14.6061 31.463 14.4767 30.7604 14.4397C30.4091 14.4397 30.0394 14.4397 29.6696 14.4582C29.4847 14.4582 29.2998 14.4952 29.1149 14.5137C29.0225 14.5137 28.9301 14.5506 28.8376 14.5691C28.7452 14.5691 28.6527 14.6061 28.5603 14.6246C27.8023 14.791 27.0442 15.0683 26.3417 15.4381C25.9904 15.623 25.6391 15.8448 25.3063 16.1037C24.9735 16.344 24.6777 16.6213 24.3819 16.9171C24.1046 17.213 23.8273 17.5088 23.5684 17.8416C23.3281 18.1744 23.1062 18.5071 22.9028 18.8769C22.5146 19.598 22.2373 20.3375 22.0894 21.0955C22.0154 21.4653 21.9599 21.8535 21.923 22.2233C21.886 22.5931 21.886 22.9629 21.9045 23.3141C21.9415 24.0167 22.0524 24.6823 22.2373 25.2739C22.4222 25.8655 22.6255 26.4017 22.8659 26.8454C23.0877 27.2891 23.3466 27.6589 23.5499 27.9547C23.6054 28.0287 23.6609 28.1026 23.6978 28.1581C23.7533 28.2136 23.7903 28.2875 23.8458 28.343C23.9382 28.4539 24.0122 28.5463 24.0861 28.6203C24.2155 28.7682 24.2895 28.8422 24.2895 28.8422L24.271 28.8052Z" fill="#FFCE07"/>
<path d="M35.808 17.287C35.808 17.287 35.8819 17.3609 35.9928 17.4719C36.0668 17.5273 36.1408 17.6198 36.2147 17.7122C36.2517 17.7677 36.3071 17.8047 36.3626 17.8601C36.4181 17.9156 36.4551 17.9895 36.5105 18.045C36.7139 18.3038 36.9542 18.6366 37.1946 19.0434C37.4349 19.4501 37.6568 19.9308 37.8232 20.4855C38.0081 21.0401 38.119 21.6502 38.1745 22.3158C38.2115 22.9814 38.1745 23.684 38.0266 24.405C37.8787 25.1261 37.6198 25.8286 37.2685 26.5127C37.0837 26.8455 36.8803 27.1783 36.6584 27.4926C36.4181 27.8069 36.1777 28.1027 35.9004 28.38C35.6231 28.6388 35.3273 28.8977 35.013 29.138C34.6987 29.3599 34.3844 29.5818 34.0331 29.7481C33.349 30.0994 32.6464 30.3583 31.9254 30.5062C31.2228 30.6541 30.5018 30.6911 29.8362 30.6541C29.1706 30.5986 28.5605 30.4877 28.0059 30.3028C27.4512 30.1364 26.9705 29.8961 26.5638 29.6742C26.157 29.4523 25.8242 29.212 25.5654 28.9901C25.4914 28.9347 25.436 28.8792 25.3805 28.8422C25.325 28.7868 25.2696 28.7498 25.2326 28.6943C25.1402 28.6019 25.0477 28.5279 24.9923 28.4725C24.8628 28.343 24.8074 28.2876 24.8074 28.2876C24.8074 28.2876 24.8813 28.343 25.0107 28.4725C25.0847 28.5279 25.1587 28.6019 25.2696 28.6758C25.362 28.7683 25.4914 28.8422 25.6209 28.9531C25.8982 29.1565 26.231 29.3784 26.6377 29.5818C27.0445 29.7851 27.5252 29.9885 28.0798 30.1549C28.616 30.3213 29.2261 30.4137 29.8732 30.4507C30.1875 30.4507 30.5388 30.4507 30.8716 30.4322C31.038 30.4322 31.2044 30.3952 31.3892 30.3768C31.5556 30.3398 31.7405 30.3213 31.9069 30.2843C32.591 30.1364 33.2935 29.8776 33.9406 29.5263C34.2734 29.3599 34.5692 29.138 34.8835 28.9162C35.1794 28.6943 35.4567 28.454 35.734 28.1766C35.9928 27.9178 36.2517 27.622 36.4735 27.3262C36.6954 27.0304 36.8988 26.7161 37.0837 26.3833C37.4349 25.7362 37.6938 25.0336 37.8417 24.3495C37.9156 23.9983 37.9711 23.6655 37.9896 23.3142C38.0266 22.9814 38.0266 22.6486 38.0081 22.3158C37.9711 21.6687 37.8787 21.0586 37.7123 20.5224C37.5459 19.9863 37.3425 19.4871 37.1391 19.0803C36.9358 18.6736 36.7139 18.3223 36.5105 18.0635C36.4181 17.9341 36.3256 17.8047 36.2332 17.7122C36.1592 17.6198 36.0853 17.5273 36.0298 17.4534C35.9004 17.324 35.8449 17.25 35.8449 17.25L35.808 17.287Z" fill="#FFCE07"/>
<g opacity="0.25">
<path d="M32.9975 14.1625C32.7756 17.3425 31.2781 24.8672 22.1818 26.864C20.4624 23.4621 21.0355 19.2283 23.8642 16.3811C26.3417 13.9036 29.8729 13.1641 32.9975 14.144V14.1625Z" fill="white"/>
</g>
<g opacity="0.25">
<path d="M37.3053 17.1198C33.848 26.2901 25.0291 27.1405 25.0291 27.1405C31.6109 25.2732 34.1993 18.8577 35.1607 15.197C35.6969 15.5483 36.196 15.9366 36.6582 16.3988C36.8986 16.6391 37.102 16.8795 37.3053 17.1198Z" fill="white"/>
</g>
<path d="M37.7123 22.7973C37.7123 26.9202 34.3843 30.2481 30.2614 30.2481C27.5436 30.2481 25.1771 28.806 23.8829 26.6429C23.2174 25.5151 22.8291 24.2024 22.8291 22.8158C22.8291 18.7114 26.157 15.365 30.2799 15.365C31.2783 15.365 32.2212 15.5684 33.0902 15.9196C33.7742 16.197 34.3843 16.5667 34.9575 17.0105C35.6785 17.6021 36.3071 18.3231 36.7693 19.1366C37.3795 20.2274 37.7307 21.4662 37.7307 22.7973H37.7123Z" fill="#FFCE07"/>
<g opacity="0.25">
<path d="M33.0717 15.8999C32.4985 19.2832 30.5203 24.5709 23.8829 26.6231C23.2174 25.4953 22.8291 24.1827 22.8291 22.796C22.8291 18.6916 26.157 15.3452 30.2799 15.3452C31.2783 15.3452 32.2212 15.5486 33.0902 15.8999H33.0717Z" fill="white"/>
</g>
<g opacity="0.25">
<path d="M36.7507 19.1166C32.9051 26.5304 25.3064 27.2515 25.3064 27.2515C30.9823 25.643 33.6816 20.6696 34.9388 16.9719C35.6599 17.5636 36.2885 18.2846 36.7507 19.0981V19.1166Z" fill="white"/>
</g>
<path d="M35.66 17.6575C34.3288 16.3819 32.517 15.6238 30.5387 15.6238C26.4343 15.6238 23.0879 18.9517 23.0879 23.0746C23.0879 25.0714 23.8644 26.8833 25.1401 28.2144C23.7165 26.8648 22.8105 24.942 22.8105 22.8158C22.8105 18.7114 26.1385 15.365 30.2614 15.365C32.3875 15.365 34.2918 16.2524 35.66 17.676V17.6575Z" fill="#BB7129"/>
<path d="M31.5 61.4369C14.5646 61.4369 0.790771 47.6446 0.790771 30.7092C0.790771 13.7738 14.5646 0 31.5 0C48.4353 0 62.2092 13.7738 62.2092 30.7092C62.2092 47.6446 48.4353 61.4184 31.5 61.4184V61.4369ZM31.5 1.9043C15.6185 1.9043 2.69508 14.8277 2.69508 30.7092C2.69508 46.5907 15.6185 59.5326 31.5185 59.5326C47.4185 59.5326 60.3419 46.6092 60.3419 30.7092C60.3419 14.8092 47.4 1.9043 31.5 1.9043Z" fill="white"/>
</svg>
