<svg width="62" height="62" viewBox="0 0 62 62" fill="none" xmlns="http://www.w3.org/2000/svg">
<path d="M31.0092 61.4184C14.07 61.4184 0.290771 47.6392 0.290771 30.7184C0.290771 13.7976 14.07 0 31.0092 0C47.9484 0 61.7276 13.7792 61.7276 30.7184C61.7276 47.6576 47.9484 61.4368 31.0092 61.4368V61.4184ZM31.0092 1.89234C15.1172 1.89234 2.18311 14.8264 2.18311 30.7184C2.18311 46.6104 15.1172 59.5261 30.9908 59.5261C46.8644 59.5261 59.7985 46.592 59.7985 30.7184C59.7985 14.8448 46.9012 1.89234 31.0092 1.89234Z" fill="white"/>
<path d="M32.0933 46.6648C30.1458 48.6123 26.9674 48.6123 25.0199 46.6648C24.6341 46.279 24.3218 45.8381 24.083 45.3788C23.1276 43.5048 23.4399 41.1531 25.0199 39.5915C26.3795 38.232 28.3453 37.8094 30.0723 38.3606C30.4949 38.4892 30.8991 38.6729 31.2665 38.9301C31.5605 39.1138 31.836 39.3343 32.0933 39.5915C32.2219 39.7201 32.3321 39.8487 32.4607 39.9957C34.0407 41.9615 33.9305 44.846 32.0933 46.6832V46.6648Z" fill="#E08B26"/>
<path d="M25.2403 46.4446C25.2403 46.4446 25.2036 46.4079 25.1301 46.3344C25.0934 46.2976 25.0383 46.2425 25.0015 46.1874C24.9831 46.1507 24.9464 46.1323 24.9096 46.0956C24.8729 46.0588 24.8545 46.0221 24.8178 45.9853C24.6892 45.82 24.5422 45.6179 24.4136 45.379C24.2666 45.1402 24.138 44.8462 24.0278 44.5155C23.9175 44.1848 23.8441 43.8174 23.8257 43.4132C23.8257 43.2111 23.8257 43.009 23.8257 42.7885C23.8257 42.5865 23.8624 42.366 23.9175 42.1455C24.0094 41.723 24.1564 41.282 24.3768 40.8778C24.4871 40.6757 24.6157 40.4736 24.7443 40.2899C24.8913 40.1062 25.0383 39.9225 25.2036 39.7571C25.369 39.5918 25.5527 39.4448 25.7364 39.2978C25.9201 39.1692 26.1222 39.0406 26.3243 38.9304C26.7285 38.7099 27.1694 38.5629 27.592 38.4711C28.0146 38.3792 28.4555 38.3608 28.8413 38.3792C29.2455 38.4159 29.6129 38.4894 29.9436 38.5813C30.2743 38.6915 30.5683 38.8201 30.8071 38.9671C31.046 39.0957 31.2481 39.2427 31.4134 39.3713C31.4502 39.4081 31.4869 39.4264 31.5237 39.4632C31.5604 39.4999 31.5971 39.5183 31.6155 39.555C31.6706 39.6101 31.7257 39.6469 31.7625 39.6836C31.836 39.7571 31.8727 39.7939 31.8727 39.7939C31.8727 39.7939 31.836 39.7571 31.7441 39.6836C31.7074 39.6469 31.6523 39.6101 31.5971 39.555C31.5604 39.5367 31.542 39.4999 31.5053 39.4815C31.4685 39.4632 31.4318 39.4264 31.395 39.3897C31.2297 39.2794 31.0276 39.1325 30.7888 39.0039C30.5316 38.8753 30.256 38.7467 29.9253 38.6548C29.5946 38.5629 29.2271 38.4894 28.8413 38.4711C28.6392 38.4711 28.4371 38.4711 28.235 38.4711C28.1248 38.4711 28.0329 38.4894 27.9227 38.5078C27.8676 38.5078 27.8125 38.5078 27.7757 38.5262C27.7206 38.5262 27.6655 38.5446 27.6287 38.5629C27.2062 38.6548 26.802 38.8018 26.3978 39.0222C26.1957 39.1325 26.012 39.2611 25.8283 39.3897C25.6445 39.5183 25.4792 39.6653 25.3138 39.8306C25.1485 39.996 25.0015 40.1613 24.8729 40.345C24.7443 40.5288 24.6157 40.7125 24.5055 40.9146C24.285 41.3004 24.138 41.723 24.0462 42.1455C24.0094 42.3476 23.9727 42.5681 23.9543 42.7702C23.9359 42.9723 23.9359 43.1744 23.9543 43.3765C23.9727 43.7623 24.0461 44.1297 24.138 44.4604C24.2299 44.7911 24.3585 45.0851 24.4871 45.3239C24.6157 45.5811 24.7443 45.7832 24.8729 45.9302C24.9096 45.9669 24.928 46.0037 24.9648 46.0404C25.0015 46.0772 25.0199 46.1139 25.0383 46.1323C25.0934 46.1874 25.1301 46.2425 25.1669 46.2793C25.2403 46.3528 25.2771 46.4079 25.2771 46.4079L25.2403 46.4446Z" fill="#FFCE07"/>
<path d="M31.6155 40.0688C31.6155 40.0688 31.6522 40.1056 31.7257 40.1791C31.7624 40.2158 31.7992 40.2526 31.8543 40.3077C31.8727 40.3261 31.9094 40.3628 31.9278 40.3995C31.9462 40.4363 31.9829 40.473 32.0196 40.5098C32.1299 40.6568 32.2585 40.8405 32.3871 41.061C32.5157 41.2814 32.6443 41.557 32.7362 41.851C32.828 42.1633 32.9015 42.494 32.9199 42.8614C32.9383 43.2289 32.9199 43.6147 32.8464 44.0189C32.7729 44.4047 32.6259 44.8089 32.4238 45.1763C32.332 45.3601 32.2034 45.5438 32.0748 45.7091C31.9462 45.8745 31.7992 46.0398 31.6522 46.2052C31.5052 46.3522 31.3399 46.4991 31.1561 46.6277C30.9908 46.7563 30.8071 46.8666 30.6234 46.9768C30.2559 47.1789 29.8517 47.3075 29.4659 47.3994C29.0801 47.4912 28.6759 47.5096 28.3085 47.4729C27.941 47.4545 27.5919 47.381 27.298 47.2891C26.9856 47.1973 26.7284 47.0687 26.508 46.9401C26.2875 46.8115 26.1038 46.6829 25.9568 46.5726C25.9201 46.5359 25.8833 46.5175 25.8466 46.4808C25.8098 46.4624 25.7915 46.4256 25.7547 46.4073C25.6996 46.3522 25.6628 46.3154 25.6261 46.2787C25.5526 46.2052 25.5159 46.1684 25.5159 46.1684C25.5159 46.1684 25.5526 46.2052 25.6261 46.2787C25.6628 46.3154 25.718 46.3522 25.7731 46.3889C25.8282 46.444 25.9017 46.4808 25.9752 46.5359C26.1222 46.6461 26.3059 46.7747 26.5447 46.885C26.7652 46.9952 27.0408 47.1054 27.3347 47.1973C27.6287 47.2891 27.9778 47.3443 28.3268 47.3626C28.5105 47.3626 28.6943 47.3626 28.878 47.3626C28.9699 47.3626 29.0617 47.3443 29.1536 47.3259C29.2454 47.3259 29.3373 47.2891 29.4475 47.2708C29.8333 47.1973 30.2192 47.0503 30.5682 46.8482C30.752 46.7563 30.9173 46.6461 31.0827 46.5175C31.248 46.3889 31.395 46.2603 31.5603 46.1133C31.7073 45.9663 31.8359 45.8194 31.9645 45.654C32.0931 45.4887 32.2034 45.3233 32.2952 45.1396C32.4973 44.7721 32.6259 44.4047 32.7178 44.0189C32.7545 43.8352 32.7913 43.6331 32.8097 43.4493C32.8097 43.2656 32.828 43.0819 32.8097 42.8982C32.8097 42.5491 32.7362 42.2 32.6443 41.9061C32.5524 41.6121 32.4422 41.3365 32.332 41.1161C32.2217 40.8956 32.0931 40.6935 31.9829 40.5465C31.9278 40.473 31.8727 40.3995 31.8359 40.3444C31.7992 40.2893 31.7441 40.2342 31.7257 40.1975C31.6522 40.124 31.6155 40.0872 31.6155 40.0872V40.0688Z" fill="#FFCE07"/>
<g opacity="0.25">
<path d="M30.0723 38.3417C29.9437 40.1054 29.1169 44.2576 24.083 45.3783C23.1276 43.5043 23.4399 41.1527 25.0199 39.591C26.3795 38.2315 28.3453 37.8089 30.0723 38.3601V38.3417Z" fill="white"/>
</g>
<g opacity="0.25">
<path d="M32.4608 39.9772C30.55 45.048 25.6814 45.5256 25.6814 45.5256C29.3191 44.4968 30.7521 40.9509 31.2849 38.9116C31.5789 39.0953 31.8545 39.3158 32.1117 39.573C32.2403 39.7016 32.3505 39.8302 32.4791 39.9772H32.4608Z" fill="white"/>
</g>
<path d="M32.6812 43.1181C32.6812 45.3962 30.844 47.2335 28.5658 47.2335C27.0593 47.2335 25.7549 46.4251 25.0384 45.2309C24.6709 44.6062 24.4504 43.8897 24.4504 43.1181C24.4504 40.8399 26.2877 39.0027 28.5658 39.0027C29.117 39.0027 29.6498 39.1129 30.1275 39.315C30.4949 39.462 30.844 39.6641 31.1563 39.9213C31.5605 40.252 31.9096 40.6378 32.1668 41.0971C32.5159 41.7034 32.6996 42.3832 32.6996 43.1181H32.6812Z" fill="#FFCE07"/>
<g opacity="0.25">
<path d="M30.1092 39.2969C29.7968 41.1709 28.6945 44.092 25.02 45.2311C24.6526 44.6065 24.4321 43.8899 24.4321 43.1183C24.4321 40.8402 26.2694 39.0029 28.5475 39.0029C29.0987 39.0029 29.6315 39.1132 30.1092 39.3153V39.2969Z" fill="white"/>
</g>
<g opacity="0.25">
<path d="M32.1484 41.0796C30.0172 45.1766 25.8284 45.5808 25.8284 45.5808C28.97 44.6806 30.4582 41.9431 31.1563 39.9038C31.5605 40.2345 31.9096 40.6203 32.1668 41.0796H32.1484Z" fill="white"/>
</g>
<path d="M31.5421 40.2704C30.8072 39.5722 29.7968 39.1497 28.7128 39.1497C26.4346 39.1497 24.5974 40.9869 24.5974 43.265C24.5974 44.3674 25.0384 45.3779 25.7365 46.1127C24.9465 45.3595 24.4504 44.2939 24.4504 43.1181C24.4504 40.8399 26.2877 39.0027 28.5658 39.0027C29.7416 39.0027 30.7889 39.4987 31.5421 40.2887V40.2704Z" fill="#BB7129"/>
<path d="M38.0456 46.8858C36.0982 48.8332 32.9198 48.8332 30.9723 46.8858C30.5865 46.4999 30.2742 46.059 30.0353 45.5997C29.08 43.7257 29.3923 41.3741 30.9723 39.8124C32.3319 38.4529 34.2977 38.0303 36.0247 38.5815C36.4473 38.7101 36.8514 38.8938 37.2189 39.151C37.5128 39.3348 37.7884 39.5552 38.0456 39.8124C38.1742 39.9411 38.2845 40.0697 38.4131 40.2166C39.9931 42.1825 39.8829 45.0669 38.0456 46.9041V46.8858Z" fill="#E08B26"/>
<path d="M31.193 46.6661C31.193 46.6661 31.1562 46.6293 31.0828 46.5558C31.046 46.5191 30.9909 46.464 30.9541 46.4088C30.9358 46.3721 30.899 46.3537 30.8623 46.317C30.8255 46.2802 30.8072 46.2435 30.7704 46.2068C30.6418 46.0414 30.4948 45.8393 30.3662 45.6005C30.2193 45.3616 30.0906 45.0677 29.9804 44.737C29.8702 44.4063 29.7967 44.0388 29.7783 43.6346C29.7783 43.4325 29.7783 43.2304 29.7783 43.01C29.7783 42.8079 29.8151 42.5874 29.8702 42.367C29.962 41.9444 30.109 41.5035 30.3295 41.0993C30.4397 40.8972 30.5683 40.6951 30.6969 40.5114C30.8439 40.3276 30.9909 40.1439 31.1562 39.9786C31.3216 39.8132 31.5053 39.6662 31.689 39.5193C31.8728 39.3906 32.0749 39.262 32.2769 39.1518C32.6811 38.9313 33.1221 38.7844 33.5446 38.6925C33.9672 38.6006 34.4081 38.5823 34.7939 38.6006C35.1981 38.6374 35.5656 38.7109 35.8963 38.8027C36.227 38.913 36.5209 39.0416 36.7598 39.1886C36.9986 39.3172 37.2007 39.4641 37.3661 39.5927C37.4028 39.6295 37.4395 39.6479 37.4763 39.6846C37.513 39.7213 37.5498 39.7397 37.5682 39.7765C37.6233 39.8316 37.6784 39.8683 37.7151 39.9051C37.7886 39.9786 37.8254 40.0153 37.8254 40.0153C37.8254 40.0153 37.7886 39.9786 37.6968 39.9051C37.66 39.8683 37.6049 39.8316 37.5498 39.7765C37.513 39.7581 37.4947 39.7213 37.4579 39.703C37.4212 39.6846 37.3844 39.6479 37.3477 39.6111C37.1823 39.5009 36.9802 39.3539 36.7414 39.2253C36.4842 39.0967 36.2086 38.9681 35.8779 38.8762C35.5472 38.7844 35.1798 38.7109 34.7939 38.6925C34.5919 38.6925 34.3898 38.6925 34.1877 38.6925C34.0774 38.6925 33.9856 38.7109 33.8753 38.7292C33.8202 38.7292 33.7651 38.7292 33.7284 38.7476C33.6732 38.7476 33.6181 38.766 33.5814 38.7844C33.1588 38.8762 32.7546 39.0232 32.3504 39.2437C32.1483 39.3539 31.9646 39.4825 31.7809 39.6111C31.5972 39.7397 31.4318 39.8867 31.2665 40.052C31.1011 40.2174 30.9541 40.3827 30.8255 40.5665C30.6969 40.7502 30.5683 40.9339 30.4581 41.136C30.2376 41.5218 30.0907 41.9444 29.9988 42.367C29.962 42.569 29.9253 42.7895 29.9069 42.9916C29.8886 43.1937 29.8886 43.3958 29.9069 43.5979C29.9253 43.9837 29.9988 44.3512 30.0906 44.6819C30.1825 45.0126 30.3111 45.3065 30.4397 45.5454C30.5683 45.8026 30.6969 46.0047 30.8255 46.1516C30.8623 46.1884 30.8807 46.2251 30.9174 46.2619C30.9541 46.2986 30.9725 46.3354 30.9909 46.3537C31.046 46.4088 31.0828 46.464 31.1195 46.5007C31.193 46.5742 31.2297 46.6293 31.2297 46.6293L31.193 46.6661Z" fill="#FFCE07"/>
<path d="M37.5681 40.3076C37.5681 40.3076 37.6048 40.3444 37.6783 40.4178C37.7151 40.4546 37.7518 40.4913 37.8069 40.5465C37.8253 40.5648 37.862 40.6016 37.8804 40.6383C37.8988 40.6751 37.9355 40.7118 37.9723 40.7486C38.0825 40.8955 38.2111 41.0792 38.3397 41.2997C38.4683 41.5202 38.5969 41.7958 38.6888 42.0897C38.7807 42.4021 38.8542 42.7328 38.8725 43.1002C38.8909 43.4676 38.8725 43.8535 38.799 44.2577C38.7255 44.6435 38.5786 45.0477 38.3765 45.4151C38.2846 45.5988 38.156 45.7825 38.0274 45.9479C37.8988 46.1132 37.7518 46.2786 37.6048 46.4439C37.4579 46.5909 37.2925 46.7379 37.1088 46.8665C36.9434 46.9951 36.7597 47.1054 36.576 47.2156C36.2085 47.4177 35.8044 47.5463 35.4185 47.6381C35.0327 47.73 34.6285 47.7484 34.2611 47.7116C33.8936 47.6933 33.5446 47.6198 33.2506 47.5279C32.9383 47.4361 32.6811 47.3074 32.4606 47.1788C32.2401 47.0502 32.0564 46.9216 31.9094 46.8114C31.8727 46.7746 31.836 46.7563 31.7992 46.7195C31.7625 46.7012 31.7441 46.6644 31.7073 46.646C31.6522 46.5909 31.6155 46.5542 31.5787 46.5174C31.5053 46.4439 31.4685 46.4072 31.4685 46.4072C31.4685 46.4072 31.5053 46.4439 31.5787 46.5174C31.6155 46.5542 31.6706 46.5909 31.7257 46.6277C31.7808 46.6828 31.8543 46.7195 31.9278 46.7746C32.0748 46.8849 32.2585 47.0135 32.4974 47.1237C32.7178 47.234 32.9934 47.3442 33.2874 47.436C33.5813 47.5279 33.9304 47.583 34.2795 47.6014C34.4632 47.6014 34.6469 47.6014 34.8306 47.6014C34.9225 47.6014 35.0144 47.583 35.1062 47.5647C35.1981 47.5647 35.2899 47.5279 35.4002 47.5095C35.786 47.436 36.1718 47.2891 36.5209 47.087C36.7046 46.9951 36.8699 46.8849 37.0353 46.7563C37.2006 46.6277 37.3476 46.4991 37.513 46.3521C37.66 46.2051 37.7886 46.0581 37.9172 45.8928C38.0458 45.7274 38.156 45.5621 38.2479 45.3784C38.45 45.0109 38.5786 44.6435 38.6704 44.2577C38.7072 44.0739 38.7439 43.8718 38.7623 43.6881C38.7623 43.5044 38.7807 43.3207 38.7623 43.1369C38.7623 42.7879 38.6888 42.4388 38.5969 42.1448C38.5051 41.8509 38.3948 41.5753 38.2846 41.3548C38.1744 41.1344 38.0458 40.9323 37.9355 40.7853C37.8804 40.7118 37.8253 40.6383 37.7886 40.5832C37.7518 40.5281 37.6967 40.473 37.6783 40.4362C37.6048 40.3627 37.5681 40.326 37.5681 40.326V40.3076Z" fill="#FFCE07"/>
<g opacity="0.25">
<path d="M36.0064 38.5629C35.8778 40.3266 35.051 44.4788 30.017 45.5995C29.0617 43.7255 29.374 41.3738 30.954 39.8122C32.3136 38.4527 34.2794 38.0301 36.0064 38.5813V38.5629Z" fill="white"/>
</g>
<g opacity="0.25">
<path d="M38.3948 40.1984C36.4841 45.2691 31.6155 45.7468 31.6155 45.7468C35.2532 44.718 36.6862 41.1721 37.219 39.1328C37.513 39.3165 37.7886 39.537 38.0458 39.7942C38.1744 39.9228 38.2846 40.0514 38.4132 40.1984H38.3948Z" fill="white"/>
</g>
<path d="M38.6153 43.3393C38.6153 45.6174 36.7781 47.4546 34.4999 47.4546C32.9934 47.4546 31.689 46.6463 30.9724 45.4521C30.605 44.8274 30.3845 44.1109 30.3845 43.3393C30.3845 41.0611 32.2217 39.2239 34.4999 39.2239C35.0511 39.2239 35.5839 39.3341 36.0615 39.5362C36.429 39.6832 36.7781 39.8853 37.0904 40.1425C37.4946 40.4732 37.8437 40.859 38.1009 41.3183C38.4499 41.9246 38.6337 42.6044 38.6337 43.3393H38.6153Z" fill="#FFCE07"/>
<g opacity="0.25">
<path d="M36.0615 39.5376C35.7492 41.4116 34.6469 44.3328 30.9724 45.4718C30.605 44.8472 30.3845 44.1307 30.3845 43.359C30.3845 41.0809 32.2217 39.2437 34.4999 39.2437C35.0511 39.2437 35.5839 39.3539 36.0615 39.556V39.5376Z" fill="white"/>
</g>
<g opacity="0.25">
<path d="M38.0825 41.3191C35.9513 45.4161 31.7625 45.8203 31.7625 45.8203C34.9041 44.9201 36.3923 42.1826 37.0904 40.1433C37.4946 40.474 37.8437 40.8598 38.1009 41.3191H38.0825Z" fill="white"/>
</g>
<path d="M37.4762 40.5108C36.7413 39.8127 35.7308 39.3901 34.6469 39.3901C32.3687 39.3901 30.5315 41.2274 30.5315 43.5055C30.5315 44.6079 30.9724 45.6183 31.6706 46.3532C30.8806 45.6 30.3845 44.5344 30.3845 43.3585C30.3845 41.0804 32.2217 39.2432 34.4999 39.2432C35.6757 39.2432 36.7229 39.7392 37.4762 40.5292V40.5108Z" fill="#BB7129"/>
<path d="M35.0696 42.5313C33.1221 44.4787 29.9437 44.4787 27.9963 42.5313C27.6104 42.1455 27.2981 41.7045 27.0593 41.2452C26.1039 39.3712 26.4162 37.0196 27.9963 35.458C29.3558 34.0984 31.3216 33.6758 33.0486 34.227C33.4712 34.3556 33.8754 34.5393 34.2428 34.7966C34.5368 34.9803 34.8124 35.2007 35.0696 35.458C35.1982 35.5866 35.3084 35.7152 35.437 35.8621C37.017 37.828 36.9068 40.7124 35.0696 42.5496V42.5313Z" fill="#E08B26"/>
<path d="M28.2167 42.3299C28.2167 42.3299 28.1799 42.2931 28.1064 42.2196C28.0697 42.1829 28.0146 42.1278 27.9778 42.0727C27.9595 42.0359 27.9227 42.0175 27.886 41.9808C27.8492 41.9441 27.8308 41.9073 27.7941 41.8706C27.6655 41.7052 27.5185 41.5031 27.3899 41.2643C27.2429 41.0254 27.1143 40.7315 27.0041 40.4008C26.8939 40.0701 26.8204 39.7026 26.802 39.2985C26.802 39.0964 26.802 38.8943 26.802 38.6738C26.802 38.4717 26.8387 38.2512 26.8939 38.0308C26.9857 37.6082 27.1327 37.1673 27.3532 36.7631C27.4634 36.561 27.592 36.3589 27.7206 36.1752C27.8676 35.9915 28.0146 35.8077 28.1799 35.6424C28.3453 35.477 28.529 35.33 28.7127 35.1831C28.8964 35.0545 29.0985 34.9259 29.3006 34.8156C29.7048 34.5952 30.1457 34.4482 30.5683 34.3563C30.9909 34.2645 31.4318 34.2461 31.8176 34.2645C32.2218 34.3012 32.5893 34.3747 32.92 34.4666C33.2507 34.5768 33.5446 34.7054 33.7835 34.8524C34.0223 34.981 34.2244 35.128 34.3897 35.2566C34.4265 35.2933 34.4632 35.3117 34.5 35.3484C34.5367 35.3852 34.5735 35.4035 34.5918 35.4403C34.647 35.4954 34.7021 35.5321 34.7388 35.5689C34.8123 35.6424 34.849 35.6791 34.849 35.6791C34.849 35.6791 34.8123 35.6424 34.7204 35.5689C34.6837 35.5321 34.6286 35.4954 34.5735 35.4403C34.5367 35.4219 34.5183 35.3852 34.4816 35.3668C34.4449 35.3484 34.4081 35.3117 34.3714 35.2749C34.206 35.1647 34.0039 35.0177 33.7651 34.8891C33.5079 34.7605 33.2323 34.6319 32.9016 34.54C32.5709 34.4482 32.2034 34.3747 31.8176 34.3563C31.6155 34.3563 31.4134 34.3563 31.2113 34.3563C31.1011 34.3563 31.0092 34.3747 30.899 34.3931C30.8439 34.3931 30.7888 34.3931 30.752 34.4114C30.6969 34.4114 30.6418 34.4298 30.6051 34.4482C30.1825 34.54 29.7783 34.687 29.3741 34.9075C29.172 35.0177 28.9883 35.1463 28.8046 35.2749C28.6209 35.4035 28.4555 35.5505 28.2902 35.7159C28.1248 35.8812 27.9778 36.0466 27.8492 36.2303C27.7206 36.414 27.592 36.5977 27.4818 36.7998C27.2613 37.1856 27.1143 37.6082 27.0225 38.0308C26.9857 38.2329 26.949 38.4533 26.9306 38.6554C26.9122 38.8575 26.9122 39.0596 26.9306 39.2617C26.949 39.6475 27.0225 40.015 27.1143 40.3457C27.2062 40.6764 27.3348 40.9703 27.4634 41.2092C27.592 41.4664 27.7206 41.6685 27.8492 41.8155C27.886 41.8522 27.9043 41.8889 27.9411 41.9257C27.9778 41.9624 27.9962 41.9992 28.0146 42.0175C28.0697 42.0727 28.1064 42.1278 28.1432 42.1645C28.2167 42.238 28.2534 42.2931 28.2534 42.2931L28.2167 42.3299Z" fill="#FFCE07"/>
<path d="M34.5918 35.9534C34.5918 35.9534 34.6285 35.9901 34.702 36.0636C34.7388 36.1003 34.7755 36.1371 34.8306 36.1922C34.849 36.2106 34.8857 36.2473 34.9041 36.2841C34.9225 36.3208 34.9592 36.3576 34.996 36.3943C35.1062 36.5413 35.2348 36.725 35.3634 36.9455C35.492 37.1659 35.6206 37.4415 35.7125 37.7355C35.8043 38.0478 35.8778 38.3785 35.8962 38.746C35.9146 39.1134 35.8962 39.4992 35.8227 39.9034C35.7492 40.2892 35.6022 40.6934 35.4002 41.0609C35.3083 41.2446 35.1797 41.4283 35.0511 41.5936C34.9225 41.759 34.7755 41.9243 34.6285 42.0897C34.4815 42.2367 34.3162 42.3837 34.1325 42.5123C33.9671 42.6409 33.7834 42.7511 33.5997 42.8613C33.2322 43.0634 32.828 43.192 32.4422 43.2839C32.0564 43.3758 31.6522 43.3941 31.2848 43.3574C30.9173 43.339 30.5683 43.2655 30.2743 43.1737C29.962 43.0818 29.7048 42.9532 29.4843 42.8246C29.2638 42.696 29.0801 42.5674 28.9331 42.4571C28.8964 42.4204 28.8596 42.402 28.8229 42.3653C28.7861 42.3469 28.7678 42.3102 28.731 42.2918C28.6759 42.2367 28.6392 42.1999 28.6024 42.1632C28.5289 42.0897 28.4922 42.053 28.4922 42.053C28.4922 42.053 28.5289 42.0897 28.6024 42.1632C28.6392 42.1999 28.6943 42.2367 28.7494 42.2734C28.8045 42.3285 28.878 42.3653 28.9515 42.4204C29.0985 42.5306 29.2822 42.6592 29.521 42.7695C29.7415 42.8797 30.0171 42.9899 30.311 43.0818C30.605 43.1737 30.9541 43.2288 31.3031 43.2472C31.4869 43.2472 31.6706 43.2472 31.8543 43.2472C31.9462 43.2472 32.038 43.2288 32.1299 43.2104C32.2218 43.2104 32.3136 43.1737 32.4238 43.1553C32.8097 43.0818 33.1955 42.9348 33.5446 42.7327C33.7283 42.6409 33.8936 42.5306 34.059 42.402C34.2243 42.2734 34.3713 42.1448 34.5367 41.9978C34.6836 41.8509 34.8122 41.7039 34.9408 41.5385C35.0695 41.3732 35.1797 41.2078 35.2715 41.0241C35.4736 40.6567 35.6022 40.2892 35.6941 39.9034C35.7309 39.7197 35.7676 39.5176 35.786 39.3339C35.786 39.1501 35.8043 38.9664 35.786 38.7827C35.786 38.4336 35.7125 38.0845 35.6206 37.7906C35.5288 37.4966 35.4185 37.2211 35.3083 37.0006C35.1981 36.7801 35.0695 36.578 34.9592 36.431C34.9041 36.3576 34.849 36.2841 34.8122 36.229C34.7755 36.1738 34.7204 36.1187 34.702 36.082C34.6285 36.0085 34.5918 35.9717 34.5918 35.9717V35.9534Z" fill="#FFCE07"/>
<g opacity="0.25">
<path d="M33.0486 34.2265C32.92 35.9902 32.0933 40.1423 27.0593 41.263C26.1039 39.3891 26.4162 37.0374 27.9963 35.4758C29.3558 34.1162 31.3216 33.6937 33.0486 34.2448V34.2265Z" fill="white"/>
</g>
<g opacity="0.25">
<path d="M35.4185 35.8608C33.5078 40.9315 28.6392 41.4092 28.6392 41.4092C32.2769 40.3803 33.7099 36.8345 34.2427 34.7952C34.5367 34.9789 34.8122 35.1994 35.0694 35.4566C35.1981 35.5852 35.3083 35.7138 35.4369 35.8608H35.4185Z" fill="white"/>
</g>
<path d="M35.639 39.0043C35.639 41.2825 33.8017 43.1197 31.5236 43.1197C30.0171 43.1197 28.7126 42.3113 27.9961 41.1171C27.6287 40.4925 27.4082 39.7759 27.4082 39.0043C27.4082 36.7261 29.2454 34.8889 31.5236 34.8889C32.0748 34.8889 32.6075 34.9991 33.0852 35.2012C33.4527 35.3482 33.8017 35.5503 34.1141 35.8075C34.5183 36.1382 34.8673 36.524 35.1245 36.9834C35.4736 37.5896 35.6573 38.2694 35.6573 39.0043H35.639Z" fill="#FFCE07"/>
<g opacity="0.25">
<path d="M33.0852 35.1834C32.7729 37.0573 31.6706 39.9785 27.9961 41.1176C27.6287 40.4929 27.4082 39.7764 27.4082 39.0048C27.4082 36.7266 29.2454 34.8894 31.5236 34.8894C32.0748 34.8894 32.6075 34.9996 33.0852 35.2017V35.1834Z" fill="white"/>
</g>
<g opacity="0.25">
<path d="M35.1062 36.9642C32.975 41.0612 28.7861 41.4654 28.7861 41.4654C31.9278 40.5651 33.4159 37.8276 34.1141 35.7883C34.5183 36.119 34.8673 36.5049 35.1246 36.9642H35.1062Z" fill="white"/>
</g>
<path d="M34.4999 36.1566C33.765 35.4585 32.7545 35.0359 31.6706 35.0359C29.3924 35.0359 27.5552 36.8731 27.5552 39.1513C27.5552 40.2536 27.9961 41.2641 28.6943 41.999C27.9043 41.2457 27.4082 40.1801 27.4082 39.0043C27.4082 36.7261 29.2454 34.8889 31.5236 34.8889C32.6994 34.8889 33.7466 35.385 34.4999 36.175V36.1566Z" fill="#BB7129"/>
<path d="M27.4451 43.4511C27.7391 43.4328 27.7391 42.9367 27.4451 42.9551C27.3349 42.9551 27.243 43.0286 27.2247 43.1572C27.2063 43.3042 27.3165 43.4511 27.4451 43.4328V43.4511Z" fill="white"/>
<path d="M25.8651 44.4072C26.0488 44.3889 26.0672 44.2051 26.0488 44.0765C26.0121 43.8377 25.7181 43.8744 25.6446 44.0765C25.5895 44.2235 25.6446 44.444 25.8651 44.4072Z" fill="white"/>
<path d="M27.0223 45.1603C27.1509 45.1603 27.2795 45.0134 27.2427 44.8848C27.1876 44.5541 26.7283 44.7194 26.8385 45.0134C26.8569 45.0869 26.9304 45.142 27.0223 45.142V45.1603Z" fill="white"/>
<path d="M43.5758 47.0701C43.5758 46.8863 43.5758 46.7026 43.5391 46.5189C43.5391 46.3719 43.5023 46.2433 43.4656 46.1147C43.3554 45.7656 43.1533 45.5268 42.8777 45.3063C42.4551 44.9756 41.9774 44.7368 41.4814 44.5531C41.3895 43.6344 41.2242 42.7158 41.0221 41.8156C40.1586 37.9574 38.2295 34.7423 35.143 32.2253C34.9592 32.0783 34.7939 31.9313 34.6102 31.7843C34.4081 31.619 34.4448 31.4353 34.5183 31.2515C34.6102 31.1781 34.702 31.1046 34.7755 31.0311C36.6862 28.7162 38.2662 26.1992 39.2951 23.3515C40.0667 21.2203 40.4893 19.0524 40.3791 16.7742C40.3791 16.5721 40.3607 16.3517 40.3239 16.1496C40.5628 16.021 40.8016 15.8556 41.0037 15.6351C41.2793 15.3412 41.316 14.9554 41.3344 14.5695C41.3712 14.1102 41.3895 13.6693 41.3895 13.21C41.3895 12.8058 41.3895 12.3833 41.3528 11.9791C41.316 11.5932 41.2609 11.1523 41.0037 10.84C40.82 10.6195 40.6179 10.4542 40.3974 10.3256C40.3056 10.2704 40.2137 10.2153 40.1218 10.1786C40.0851 10.1786 40.0667 10.1418 40.03 10.1418C39.8095 10.0316 39.5707 9.92137 39.3318 9.84788C39.2032 9.79276 39.0563 9.75602 38.9277 9.7009C38.6521 9.60904 38.3765 9.53555 38.1009 9.46206C38.0274 9.46206 37.9539 9.42532 37.8988 9.40695C36.1351 8.96601 34.3162 8.76392 32.4974 8.67206C30.6969 8.5802 28.8964 8.5802 27.0775 8.74555C26.0303 8.85578 24.9647 8.94764 23.9175 9.13136C22.9254 9.29671 21.9517 9.53555 21.0331 9.93974C20.6656 10.1051 20.3166 10.3072 20.0042 10.546C19.6919 10.7849 19.5817 11.1523 19.5449 11.5381C19.4898 12.0342 19.4347 12.5486 19.4163 13.063C19.4163 13.357 19.3979 13.6693 19.3979 13.9633C19.3979 14.2021 19.3979 14.4226 19.3979 14.7165C19.3979 14.9554 19.4898 15.1575 19.6919 15.3596C19.9675 15.6535 20.3166 15.8556 20.684 16.0393C20.8494 16.1128 21.0147 16.1863 21.1984 16.2598C21.1984 16.9579 21.1617 17.6745 21.2168 18.3542C21.327 19.5484 21.5659 20.7426 21.8598 21.9001C22.7417 25.4275 24.3585 28.5508 27.1143 31.0127C27.298 31.1781 27.4634 31.3802 27.7022 31.619C27.5001 31.8762 27.3348 32.0783 27.1694 32.2804C26.2508 33.3644 25.4424 34.5034 24.781 35.7527C23.348 38.4535 22.3559 41.2828 21.9701 44.3142C21.4924 44.4796 21.0515 44.7184 20.6656 45.0675C20.5554 45.1777 20.4452 45.2696 20.3533 45.3982C20.2431 45.5452 20.188 45.7289 20.188 45.8942C20.1328 46.6475 20.1145 47.4008 20.0961 48.1356C20.0961 48.5031 20.0594 48.8889 20.0594 49.2564C20.0594 49.6973 20.0961 50.1382 20.2798 50.5424C20.5554 51.1487 21.2168 51.4978 21.768 51.7733C22.4845 52.1408 23.2561 52.3796 24.0461 52.5634C26.2875 53.1145 28.5473 53.4269 30.8622 53.482C31.5236 53.482 32.185 53.482 32.8464 53.482C33.6548 53.5922 34.4448 53.5003 35.2532 53.482C36.7597 53.4452 38.2295 53.2248 39.6993 52.9308C40.4525 52.7838 41.2058 52.5634 41.9223 52.2694C42.1979 52.1592 42.4551 52.0122 42.694 51.8285C42.9328 51.6631 43.1716 51.4794 43.3002 51.2222C43.4105 51.0017 43.4472 50.7445 43.4656 50.4873C43.484 50.2852 43.5023 50.0647 43.5207 49.8626C43.5575 49.4584 43.5758 49.0543 43.5942 48.6317C43.5942 48.1173 43.6309 47.6028 43.5942 47.0884L43.5758 47.0701ZM42.1612 45.2512C42.4184 45.3798 42.6572 45.5452 42.8593 45.7473C43.2451 46.1147 43.2268 46.5005 42.8593 46.868C42.6388 47.1068 42.3633 47.2721 42.0877 47.4008C41.904 47.4926 41.7019 47.5661 41.4998 47.6396C41.4998 47.5477 41.4998 47.4375 41.4998 47.3456C41.5549 46.5373 41.5365 45.7289 41.463 44.9389C41.6835 45.0307 41.904 45.1226 42.1244 45.2328L42.1612 45.2512ZM19.9307 11.0053C20.1328 10.7114 20.4084 10.5093 20.7208 10.3439C21.327 10.0132 21.9884 9.79276 22.6498 9.62741C23.7338 9.35183 24.8361 9.16811 25.9568 9.05787C27.4082 8.9109 28.878 8.78229 30.3294 8.80066C31.5971 8.80066 32.8464 8.94764 34.0957 9.0395C35.2532 9.11299 36.4107 9.29671 37.5314 9.5723C37.2558 9.71928 36.9986 9.86625 36.723 10.0132C36.3555 10.2153 35.9881 10.4725 35.6206 10.6746C35.5288 10.7297 35.6206 10.84 35.6941 10.8032C36.08 10.6195 36.4841 10.4725 36.8883 10.2888C37.2741 10.1051 37.66 9.92137 38.0458 9.71928C38.0458 9.71928 38.0458 9.71928 38.0642 9.71928C38.2479 9.77439 38.45 9.82951 38.6337 9.88463C38.5786 9.92137 38.5418 9.93974 38.4867 9.97649C38.303 10.0867 38.1376 10.2153 37.9539 10.3256C37.5865 10.5644 37.219 10.8032 36.8516 11.0421C36.7781 11.0972 36.8516 11.1891 36.9251 11.1523C37.3293 10.9502 37.7151 10.7665 38.1193 10.5828C38.3214 10.4909 38.5051 10.399 38.6888 10.3072C38.7807 10.2521 38.8909 10.197 38.9828 10.1418C39.0379 10.1051 39.093 10.0867 39.1481 10.05C39.3502 10.1235 39.5707 10.2153 39.7728 10.3072C39.6258 10.399 39.4972 10.5093 39.3502 10.6011C39.0563 10.8216 38.7623 11.0053 38.4683 11.2258C38.3949 11.2809 38.4683 11.3728 38.5418 11.336C38.8542 11.1707 39.1849 10.987 39.4972 10.8216C39.6625 10.7297 39.8095 10.6563 39.9749 10.5644C40.0116 10.546 40.0667 10.5093 40.1218 10.4909C40.3056 10.6011 40.4893 10.7114 40.6546 10.8767C41.0772 11.2809 41.0772 11.6667 40.6546 12.0526C40.3974 12.2914 40.1035 12.4567 39.7728 12.6037C38.9276 12.9895 38.0458 13.21 37.1455 13.3937C36.0248 13.6142 34.8858 13.7244 33.7283 13.8347C32.6443 13.9265 31.542 13.9449 30.2376 13.9633C28.0513 13.9265 25.6445 13.7612 23.2745 13.2467C22.411 13.063 21.5475 12.8058 20.7575 12.4016C20.4452 12.2363 20.1696 12.0526 19.9491 11.7586C19.7838 11.5198 19.7654 11.2993 19.9491 11.0421L19.9307 11.0053ZM21.1801 15.8556C20.9963 15.7821 20.831 15.7086 20.6473 15.6168C20.2982 15.4514 19.9859 15.2493 19.7838 14.9554C19.7103 14.8451 19.6735 14.6982 19.6552 14.5695C19.6552 14.4961 19.6552 14.4226 19.6552 14.3675C19.6552 14.2205 19.6552 14.0919 19.6552 13.9449C19.6552 13.6509 19.6552 13.3386 19.6552 13.0447C19.6552 12.6956 19.6919 12.3281 19.7287 11.9791C19.7838 12.0526 19.8389 12.126 19.9124 12.1995C20.2798 12.5302 20.7024 12.7691 21.1617 12.9528C22.1538 13.3754 23.1826 13.6142 24.2299 13.7979C26.3059 14.1654 28.382 14.3491 30.4764 14.3123C31.7074 14.3123 32.9383 14.294 34.1692 14.1654C35.6574 14.0184 37.1272 13.7979 38.5786 13.3937C39.1665 13.2284 39.7177 13.0079 40.2505 12.714C40.526 12.567 40.7832 12.3833 40.9853 12.126C40.9853 12.1077 41.0221 12.0893 41.0221 12.0709C41.0405 12.4567 41.0772 12.8426 41.0588 13.2467C41.0588 13.8163 41.0037 14.3858 40.9486 14.937C40.9486 15.084 40.8567 15.231 40.7465 15.3412C40.5812 15.5065 40.3791 15.6535 40.1953 15.7637C40.1035 15.8189 40.0116 15.874 39.9198 15.9107C39.6442 16.0577 39.3502 16.1496 39.0379 16.2414C38.7072 16.3333 38.3765 16.4435 38.0458 16.517C36.3004 16.9212 34.5367 17.1049 32.7546 17.1784C30.9541 17.2519 29.1352 17.2335 27.3348 17.0682C25.9385 16.9396 24.5422 16.7742 23.1643 16.4619C22.6315 16.3517 22.117 16.2231 21.6026 16.0393C21.4556 15.9842 21.3087 15.9291 21.1617 15.874L21.1801 15.8556ZM22.3375 44.4979C22.3375 44.3877 22.3559 44.2775 22.3743 44.1672C22.3926 44.0203 22.411 43.8549 22.4477 43.7079C22.907 40.7316 23.9726 37.9574 25.4424 35.3118C26.0671 34.1727 26.802 33.1255 27.6838 32.1702C27.7757 32.0599 27.8676 31.9497 27.941 31.8395C28.0513 31.6741 28.0329 31.5088 27.8859 31.3802C27.6655 31.1597 27.4266 30.9576 27.1878 30.7371C26.0303 29.6164 24.9647 28.4222 24.2115 26.9708C22.7784 24.215 21.9149 21.2938 21.6394 18.1889C21.5842 17.5826 21.5108 16.9947 21.5659 16.3884C21.9333 16.517 22.3008 16.6272 22.6866 16.7191C24.7259 17.2335 26.8203 17.454 28.9148 17.5459C30.0906 17.601 31.2664 17.5642 32.4422 17.5459C34.1692 17.5459 35.8779 17.307 37.5681 17.0131C38.3581 16.8661 39.1297 16.6456 39.883 16.3333C39.883 16.3884 39.883 16.4435 39.883 16.4986C39.9932 18.2991 39.736 20.0445 39.2767 21.7715C38.5602 24.4906 37.3109 26.9708 35.6941 29.2673C35.2532 29.892 34.7755 30.5167 34.3162 31.1413C33.8937 31.5639 33.8937 31.6741 34.3162 32.0048C34.353 32.0416 34.4081 32.0783 34.4632 32.0967C35.2899 32.7764 36.0616 33.493 36.7597 34.3013C38.7439 36.5979 39.9749 39.2435 40.5628 42.2014C40.7098 42.9363 40.8384 43.6712 40.9486 44.4061C40.9486 44.5163 40.9853 44.6265 40.9853 44.7368C41.0956 45.7656 41.1139 46.7761 40.9853 47.8233C40.8751 47.8601 40.7832 47.8784 40.673 47.9152C39.0011 48.3929 37.2925 48.595 35.5839 48.7052C33.4895 48.8338 31.395 48.8338 29.3006 48.6684C27.8124 48.5398 26.3243 48.3745 24.8729 48.0805C23.9543 47.8968 23.0357 47.658 22.1722 47.2905C22.1354 46.3535 22.1722 45.4166 22.3008 44.4979H22.3375ZM20.978 45.1961C21.2535 44.9756 21.5475 44.8103 21.8782 44.6817C21.8782 44.6817 21.8782 44.6817 21.8966 44.6817C21.8966 44.7735 21.8782 44.8654 21.8598 44.9756C21.7863 45.6921 21.768 46.4087 21.8047 47.1435C21.5108 46.9966 21.2352 46.8312 20.978 46.6291C20.3901 46.1698 20.4084 45.6738 20.978 45.2145V45.1961ZM43.2268 48.6133C43.2268 49.0726 43.2268 49.5871 43.19 50.0464C43.1533 50.4138 43.1349 50.818 42.9144 51.1487C42.7675 51.3508 42.547 51.5161 42.3265 51.6264C42.106 51.755 41.8672 51.8836 41.6284 51.9571C41.2058 52.1041 40.7649 52.251 40.3239 52.3796C38.6704 52.8022 36.9802 52.9675 35.2899 53.0594C32.5341 53.188 29.7783 53.1145 27.0408 52.7287C25.5527 52.5266 24.1012 52.2327 22.6866 51.7366C22.2456 51.5713 21.8047 51.3875 21.4005 51.1303C21.0882 50.9282 20.8126 50.7261 20.6105 50.4138C20.4084 50.1015 20.3717 49.6054 20.3717 49.2564C20.3717 48.5398 20.4084 47.8233 20.4268 47.1068C20.4268 46.9231 20.4268 46.7394 20.4268 46.5373C20.4819 46.6107 20.5554 46.6842 20.6289 46.7577C20.9412 47.0701 21.327 47.2538 21.7129 47.4559C21.768 47.4742 21.8047 47.4926 21.8598 47.5294C21.9701 47.5845 22.0803 47.6212 22.2089 47.6763C22.8703 47.9519 23.5501 48.1356 24.2482 48.301C26.9673 48.944 29.7415 49.1645 33.2506 49.1829C34.4632 49.2196 36.3739 49.0726 38.2846 48.797C39.2216 48.6684 40.1402 48.4663 41.0405 48.1908H41.0956C41.1874 48.154 41.2977 48.1173 41.3895 48.0805C41.4263 48.0805 41.4446 48.0622 41.4814 48.0438C41.9407 47.8784 42.3816 47.6947 42.7858 47.4008C42.9879 47.2721 43.1349 47.1252 43.2635 46.9782C43.3002 47.5294 43.2819 48.0622 43.2635 48.6133H43.2268Z" fill="white"/>
<path d="M23.6971 21.606C23.6236 21.459 23.5501 21.3304 23.495 21.1834C23.3664 20.9078 23.2929 20.6139 23.2011 20.3199C23.0357 19.7137 22.9255 19.089 22.9622 18.4827C22.9622 18.3909 22.8336 18.3909 22.8152 18.4827C22.7234 19.1257 22.705 19.7871 22.8704 20.4302C22.9622 20.7425 23.0725 21.0548 23.2194 21.3488C23.2929 21.4958 23.3664 21.6244 23.4583 21.753C23.5501 21.8816 23.642 22.0286 23.7706 22.102C23.8073 22.1388 23.8625 22.102 23.8625 22.0469C23.8257 21.9 23.7522 21.7713 23.6787 21.6427L23.6971 21.606Z" fill="white"/>
<path d="M25.6262 38.3792C25.8834 37.332 26.3427 36.395 26.9674 35.5315C27.0225 35.458 26.9306 35.3845 26.8755 35.4397C26.1222 36.248 25.5894 37.2585 25.2955 38.3057C25.2404 38.5078 25.5711 38.5813 25.6262 38.3792Z" fill="white"/>
<path d="M42.1796 48.7608C41.6284 48.9996 41.0405 49.1649 40.4526 49.3119C39.8647 49.4589 39.2767 49.5508 38.6705 49.5691C38.5786 49.5691 38.5786 49.6977 38.6705 49.6977C39.2951 49.7161 39.9198 49.6977 40.5261 49.5691C41.1323 49.4405 41.7019 49.1833 42.253 48.8894C42.3449 48.8342 42.253 48.7056 42.1796 48.7608Z" fill="white"/>
<path d="M42.1244 49.9365C42.0325 49.9549 41.9407 50.01 41.8488 50.0468C41.757 50.1019 41.6467 50.1386 41.5365 50.157C41.3344 50.2305 41.1139 50.304 40.9118 50.3407C40.4893 50.4326 40.0667 50.5061 39.6258 50.4877C39.5339 50.4877 39.5339 50.6163 39.6258 50.6163C40.0667 50.6714 40.5444 50.6531 40.9853 50.5612C41.2058 50.5061 41.4263 50.451 41.61 50.3591C41.7937 50.2672 42.0325 50.1754 42.1979 50.0284C42.253 49.9917 42.1979 49.8998 42.1428 49.9182L42.1244 49.9365Z" fill="white"/>
<path d="M33.8754 23.5901C33.8754 21.6794 32.7547 20.081 31.2665 19.6768V19.585H30.55C28.7128 19.585 27.2246 21.3854 27.2246 23.5901C27.2246 25.7948 28.7128 27.5953 30.55 27.5953H31.2665V27.5034C32.7547 27.0992 33.8754 25.5008 33.8754 23.5901Z" fill="#A99EB7"/>
<g style="mix-blend-mode:multiply" opacity="0.2">
<path d="M31.45 20.5417H25.4607V20.7622H31.45V20.5417Z" fill="#5D406F"/>
</g>
<g style="mix-blend-mode:multiply" opacity="0.2">
<path d="M31.45 19.8059H25.4607V20.0264H31.45V19.8059Z" fill="#5D406F"/>
</g>
<g style="mix-blend-mode:multiply" opacity="0.2">
<path d="M31.45 21.2939H25.4607V21.5144H31.45V21.2939Z" fill="#5D406F"/>
</g>
<g style="mix-blend-mode:multiply" opacity="0.2">
<path d="M31.45 22.0288H25.4607V22.2493H31.45V22.0288Z" fill="#5D406F"/>
</g>
<g style="mix-blend-mode:multiply" opacity="0.2">
<path d="M31.45 22.7644H25.4607V22.9849H31.45V22.7644Z" fill="#5D406F"/>
</g>
<g style="mix-blend-mode:multiply" opacity="0.2">
<path d="M31.45 23.4983H25.4607V23.7188H31.45V23.4983Z" fill="#5D406F"/>
</g>
<g style="mix-blend-mode:multiply" opacity="0.2">
<path d="M31.45 24.2522H25.4607V24.4727H31.45V24.2522Z" fill="#5D406F"/>
</g>
<g style="mix-blend-mode:multiply" opacity="0.2">
<path d="M31.45 24.9873H25.4607V25.2078H31.45V24.9873Z" fill="#5D406F"/>
</g>
<g style="mix-blend-mode:multiply" opacity="0.2">
<path d="M31.45 25.7212H25.4607V25.9417H31.45V25.7212Z" fill="#5D406F"/>
</g>
<g style="mix-blend-mode:multiply" opacity="0.2">
<path d="M31.45 26.4749H25.4607V26.6953H31.45V26.4749Z" fill="#5D406F"/>
</g>
<g style="mix-blend-mode:multiply" opacity="0.2">
<path d="M31.45 27.2107H25.4607V27.4312H31.45V27.2107Z" fill="#5D406F"/>
</g>
<path d="M34.6468 23.5901C34.6468 25.8132 33.1587 27.5953 31.3215 27.5953C29.4842 27.5953 27.9961 25.7948 27.9961 23.5901C27.9961 21.3854 29.4842 19.585 31.3215 19.585C33.1587 19.585 34.6468 21.3854 34.6468 23.5901Z" fill="#B8AEC3"/>
<path d="M34.3344 23.5903C34.3344 25.5929 32.9933 27.228 31.3214 27.228C29.6495 27.228 28.3083 25.6113 28.3083 23.5903C28.3083 21.5694 29.6495 19.9526 31.3214 19.9526C32.9933 19.9526 34.3344 21.5694 34.3344 23.5903Z" fill="#A99EB7"/>
<path d="M31.3216 27.044C32.8943 27.044 34.1693 25.4976 34.1693 23.59C34.1693 21.6824 32.8943 20.136 31.3216 20.136C29.7488 20.136 28.4739 21.6824 28.4739 23.59C28.4739 25.4976 29.7488 27.044 31.3216 27.044Z" fill="#D4CEDC"/>
<path d="M30.8989 21.6971C30.8989 21.6971 31.0826 21.8073 31.0826 22.0461V23.8466C31.0826 24.1038 30.9357 24.2692 30.9357 24.3243C30.9357 24.3794 31.7441 24.3794 31.7441 24.3243C31.7441 24.2692 31.5787 24.1222 31.5787 23.865V21.2745C31.5787 21.0908 30.8989 21.6052 30.8989 21.6787V21.6971Z" fill="#A99EB7"/>
<path d="M30.0724 21.6799L29.1721 24.6929L29.2456 24.7297L30.1275 21.6248L30.0724 21.6799Z" fill="#A99EB7"/>
<path d="M29.3374 24.3264C29.025 24.1978 29.0434 23.7752 29.2639 23.2792C29.4843 22.7831 29.1536 22.581 28.9332 22.6729C28.7127 22.7648 28.6943 23.3159 28.7494 23.3343C28.8046 23.3343 28.9883 22.7464 29.1353 22.8015C29.2822 22.8566 29.3006 23.0771 28.9332 23.6099C28.5657 24.1243 29.0434 24.4917 29.319 24.4366" fill="#A99EB7"/>
<path d="M29.319 24.3254C29.6313 24.454 29.8334 24.105 29.9069 23.5538C29.9987 23.0026 30.3478 23.0945 30.4764 23.315C30.605 23.5538 30.3294 23.9947 30.2743 23.958C30.2192 23.9212 30.3846 23.315 30.256 23.2598C30.109 23.2047 29.9804 23.3517 29.9987 24.0315C30.0171 24.7113 29.4659 24.6378 29.2822 24.3989" fill="#A99EB7"/>
<path d="M29.2088 23.6829C29.2088 23.6829 29.0434 24.0136 29.3558 24.1422C29.613 24.2524 29.7048 24.0319 29.7416 23.9217C29.6497 23.885 29.4109 24.0136 29.4109 24.0136C29.4109 24.0136 29.2639 23.7196 29.1904 23.6829H29.2088Z" fill="#A99EB7"/>
<path d="M29.3189 23.3877C29.3189 23.3877 29.172 23.7184 29.4475 23.8286C29.6864 23.9205 29.7782 23.7184 29.815 23.6082C29.7231 23.5898 29.5027 23.7184 29.5027 23.7184C29.5027 23.7184 29.3741 23.4244 29.3006 23.3877H29.3189Z" fill="#A99EB7"/>
<path d="M29.411 23.1118C29.411 23.1118 29.264 23.4241 29.5396 23.5527C29.7601 23.6446 29.8703 23.4425 29.8887 23.3323C29.7968 23.3139 29.5947 23.4241 29.5947 23.4241C29.5947 23.4241 29.4661 23.1486 29.411 23.1118Z" fill="#A99EB7"/>
<path d="M29.4842 22.8563C29.4842 22.8563 29.3372 23.1686 29.6128 23.2788C29.8333 23.3707 29.9252 23.1686 29.9619 23.0584C29.87 23.04 29.6679 23.1502 29.6679 23.1502C29.6679 23.1502 29.5393 22.8746 29.4842 22.8379V22.8563Z" fill="#A99EB7"/>
<path d="M29.5763 22.6167C29.5763 22.6167 29.4477 22.9107 29.7049 23.0209C29.907 23.1127 29.9989 22.9107 30.0356 22.8188C29.9438 22.8004 29.7601 22.9107 29.7601 22.9107C29.7601 22.9107 29.6498 22.6534 29.5763 22.6167Z" fill="#A99EB7"/>
<path d="M29.6498 22.3779C29.6498 22.3779 29.5212 22.6535 29.76 22.7637C29.9621 22.8556 30.0356 22.6719 30.0724 22.58C29.9989 22.5617 29.8152 22.6719 29.8152 22.6719C29.8152 22.6719 29.7049 22.433 29.6498 22.3963V22.3779Z" fill="#A99EB7"/>
<path d="M29.7233 22.1575C29.7233 22.1575 29.5947 22.4147 29.8335 22.5249C30.0173 22.5984 30.1091 22.4331 30.1275 22.3412C30.054 22.3228 29.8703 22.4331 29.8703 22.4331C29.8703 22.4331 29.76 22.1942 29.7049 22.1758L29.7233 22.1575Z" fill="#A99EB7"/>
<path d="M29.815 22.0106C29.815 22.0106 29.7231 22.2127 29.9068 22.2861C30.0538 22.3413 30.1273 22.2127 30.1457 22.1392C30.0905 22.1392 29.9436 22.1943 29.9436 22.1943C29.9436 22.1943 29.8517 22.0106 29.815 21.9922V22.0106Z" fill="#A99EB7"/>
<path d="M29.907 21.8452C29.907 21.8452 29.8152 22.0473 29.9621 22.1208C30.0724 22.1759 30.1459 22.0289 30.1642 21.9554C30.1091 21.9554 29.9989 22.0289 29.9989 22.0289C29.9989 22.0289 29.9438 21.8636 29.907 21.8452Z" fill="#A99EB7"/>
<path d="M30.0172 21.9371C30.0172 21.9371 29.9621 21.882 30.0172 21.7166C30.0539 21.5696 30.1641 21.4778 30.1641 21.4778C30.1641 21.4778 30.2009 21.6248 30.1641 21.7901C30.1274 21.9187 30.0355 21.9371 30.0355 21.9371H30.0172Z" fill="#A99EB7"/>
<path d="M32.571 21.6799L33.4712 24.6929L33.3977 24.7297L32.5159 21.6248L32.571 21.6799Z" fill="#A99EB7"/>
<path d="M33.3059 24.3264C33.6182 24.1978 33.5999 23.7752 33.3794 23.2792C33.1589 22.7831 33.4896 22.581 33.7101 22.6729C33.9306 22.7648 33.9489 23.3159 33.8938 23.3343C33.8387 23.3343 33.655 22.7464 33.508 22.8015C33.361 22.8566 33.3427 23.0771 33.7101 23.6099C34.0775 24.1243 33.5999 24.4917 33.3243 24.4366" fill="#A99EB7"/>
<path d="M33.3241 24.3254C33.0118 24.454 32.8097 24.105 32.7362 23.5538C32.6443 23.0026 32.2953 23.0945 32.1666 23.315C32.038 23.5538 32.3136 23.9947 32.3687 23.958C32.4239 23.9212 32.2585 23.315 32.3871 23.2598C32.5341 23.2047 32.6627 23.3517 32.6443 24.0315C32.626 24.7113 33.1771 24.6378 33.3608 24.3989" fill="#A99EB7"/>
<path d="M33.4344 23.6829C33.4344 23.6829 33.5998 24.0136 33.2874 24.1422C33.0302 24.2524 32.9384 24.0319 32.9016 23.9217C32.9935 23.885 33.2323 24.0136 33.2323 24.0136C33.2323 24.0136 33.3793 23.7196 33.4528 23.6829H33.4344Z" fill="#A99EB7"/>
<path d="M33.3242 23.3877C33.3242 23.3877 33.4712 23.7184 33.1956 23.8286C32.9567 23.9205 32.8649 23.7184 32.8281 23.6082C32.92 23.5898 33.1405 23.7184 33.1405 23.7184C33.1405 23.7184 33.2691 23.4244 33.3425 23.3877H33.3242Z" fill="#A99EB7"/>
<path d="M33.2506 23.1118C33.2506 23.1118 33.3976 23.4241 33.122 23.5527C32.9016 23.6446 32.7913 23.4425 32.7729 23.3323C32.8648 23.3139 33.0669 23.4241 33.0669 23.4241C33.0669 23.4241 33.1955 23.1486 33.2506 23.1118Z" fill="#A99EB7"/>
<path d="M33.1588 22.8563C33.1588 22.8563 33.3058 23.1686 33.0302 23.2788C32.8098 23.3707 32.7179 23.1686 32.6812 23.0584C32.773 23.04 32.9751 23.1502 32.9751 23.1502C32.9751 23.1502 33.1037 22.8746 33.1588 22.8379V22.8563Z" fill="#A99EB7"/>
<path d="M33.0853 22.6167C33.0853 22.6167 33.2139 22.9107 32.9567 23.0209C32.7546 23.1127 32.6627 22.9107 32.626 22.8188C32.7178 22.8004 32.9016 22.9107 32.9016 22.9107C32.9016 22.9107 33.0118 22.6534 33.0853 22.6167Z" fill="#A99EB7"/>
<path d="M32.9936 22.3779C32.9936 22.3779 33.1222 22.6535 32.8834 22.7637C32.6813 22.8556 32.6078 22.6719 32.571 22.58C32.6445 22.5617 32.8283 22.6719 32.8283 22.6719C32.8283 22.6719 32.9385 22.433 32.9936 22.3963V22.3779Z" fill="#A99EB7"/>
<path d="M32.9201 22.1575C32.9201 22.1575 33.0487 22.4147 32.8098 22.5249C32.6261 22.5984 32.5342 22.4331 32.5159 22.3412C32.5894 22.3228 32.7731 22.4331 32.7731 22.4331C32.7731 22.4331 32.8833 22.1942 32.9384 22.1758L32.9201 22.1575Z" fill="#A99EB7"/>
<path d="M32.828 22.0106C32.828 22.0106 32.9199 22.2127 32.7362 22.2861C32.5892 22.3413 32.5157 22.2127 32.4973 22.1392C32.5524 22.1392 32.6994 22.1943 32.6994 22.1943C32.6994 22.1943 32.7913 22.0106 32.828 21.9922V22.0106Z" fill="#A99EB7"/>
<path d="M32.7362 21.8452C32.7362 21.8452 32.8281 22.0473 32.6811 22.1208C32.5709 22.1759 32.4974 22.0289 32.479 21.9554C32.5341 21.9554 32.6444 22.0289 32.6444 22.0289C32.6444 22.0289 32.6995 21.8636 32.7362 21.8452Z" fill="#A99EB7"/>
<path d="M32.626 21.9371C32.626 21.9371 32.6811 21.882 32.626 21.7166C32.5892 21.5696 32.479 21.4778 32.479 21.4778C32.479 21.4778 32.4422 21.6248 32.479 21.7901C32.5157 21.9187 32.6076 21.9371 32.6076 21.9371H32.626Z" fill="#A99EB7"/>
<path d="M29.1904 24.6377C29.1904 24.6377 29.815 24.6928 29.9436 24.8398C30.0722 25.0051 30.0171 25.7033 30.4581 25.6482C30.2927 25.8686 29.8701 25.6114 29.815 25.2072C29.7599 24.803 29.1353 24.8214 29.1353 24.8214L29.1904 24.6377Z" fill="#A99EB7"/>
<path d="M33.4527 24.6377C33.4527 24.6377 32.8281 24.6928 32.6995 24.8398C32.5709 25.0051 32.626 25.7033 32.1851 25.6482C32.3504 25.8686 32.773 25.6114 32.8281 25.2072C32.8832 24.803 33.5079 24.8214 33.5079 24.8214L33.4527 24.6377Z" fill="#A99EB7"/>
<path d="M30.4214 24.7471C30.4214 24.7471 30.5132 24.7471 30.55 24.7471C30.6602 24.7471 30.697 24.8022 30.697 24.894C30.697 24.9492 30.6786 24.9859 30.6235 25.0227C30.6786 25.0594 30.697 25.1329 30.7337 25.2431H30.6235C30.5684 25.1145 30.55 25.041 30.5133 25.041V25.2431H30.4214V24.7471ZM30.5133 24.9492H30.5316C30.5316 24.9492 30.5867 24.9308 30.5867 24.8757C30.5867 24.8389 30.5867 24.8022 30.5316 24.8022H30.5133V24.9308V24.9492Z" fill="#A99EB7"/>
<path d="M30.9173 24.7471V25.041C30.9173 25.041 30.954 25.1513 30.9908 25.1513C31.0275 25.1513 31.0643 25.1145 31.0643 25.041V24.7471H31.1561V25.041C31.1561 25.1513 31.1194 25.2431 30.9908 25.2431C30.8622 25.2431 30.8254 25.1513 30.8254 25.041V24.7471H30.9173Z" fill="#A99EB7"/>
<path d="M31.2847 24.7471C31.2847 24.7471 31.3765 24.7471 31.4133 24.7471C31.5235 24.7471 31.5603 24.8022 31.5603 24.8941C31.5603 25.0043 31.5051 25.0411 31.3949 25.0411V25.2248H31.303V24.7288L31.2847 24.7471ZM31.3765 24.9676H31.3949C31.3949 24.9676 31.45 24.9492 31.45 24.8941C31.45 24.8574 31.45 24.8206 31.3949 24.8206C31.3949 24.8206 31.3949 24.8206 31.3765 24.8206V24.9676Z" fill="#A99EB7"/>
<path d="M31.6522 24.7471H31.9094V24.8389H31.744V24.9492H31.8726V25.041H31.744V25.1696H31.9094V25.2615H31.6338V24.7654L31.6522 24.7471Z" fill="#A99EB7"/>
<path d="M32.0196 24.7471H32.2768V24.8389H32.1115V24.9492H32.2401V25.041H32.1115V25.1696H32.2768V25.2615H32.0012V24.7654L32.0196 24.7471Z" fill="#A99EB7"/>
</svg>
