<svg width="304" height="171" viewBox="0 0 304 171" fill="none" xmlns="http://www.w3.org/2000/svg">
<path d="M3.90503 142.37V113.87H11.615C22.37 113.87 27.98 118.835 27.98 127.985C27.98 137.135 21.98 142.415 11.615 142.415L3.90503 142.37ZM7.25003 139.265H11.09C20.09 139.265 24.47 135.68 24.47 127.85C24.47 120.35 20.36 116.93 11.09 116.93H7.25003V139.265Z" fill="#06231A"/>
<path d="M54.7849 113.825H51.4399V142.37H54.7849V113.825Z" fill="#06231A"/>
<path d="M99.5001 142.37L96.3951 134.87H82.5651L79.4601 142.37H75.8601L88.2051 113.87H90.8601L103.115 142.37H99.5001ZM83.6901 131.96H95.1951L91.4451 122.96C90.6651 121.055 89.9451 119.525 89.4651 118.04H89.3751C88.8201 119.54 88.1751 121.04 87.4101 122.96L83.6901 131.96Z" fill="#06231A"/>
<path d="M138.665 133.385H138.755L148.55 113.825H153.14V142.37H149.84V118.175H149.75L139.04 139.175H138.305L127.58 118.175H127.505V142.37H124.19V113.825H128.795L138.665 133.385Z" fill="#06231A"/>
<path d="M176.6 128.09C176.558 125.073 177.415 122.111 179.062 119.582C180.708 117.053 183.07 115.071 185.846 113.888C188.622 112.705 191.687 112.374 194.652 112.938C197.617 113.502 200.346 114.936 202.494 117.056C204.642 119.176 206.11 121.887 206.712 124.844C207.315 127.801 207.024 130.87 205.877 133.662C204.73 136.453 202.778 138.84 200.271 140.519C197.763 142.198 194.813 143.093 191.795 143.09C189.798 143.158 187.808 142.818 185.946 142.09C184.085 141.363 182.392 140.264 180.97 138.86C179.547 137.456 178.426 135.777 177.675 133.925C176.924 132.073 176.558 130.088 176.6 128.09M203.495 128.09C203.456 125.785 202.738 123.542 201.429 121.644C200.12 119.746 198.28 118.276 196.139 117.421C193.998 116.565 191.652 116.361 189.395 116.834C187.139 117.307 185.072 118.437 183.455 120.081C181.838 121.724 180.743 123.809 180.307 126.073C179.872 128.337 180.114 130.68 181.005 132.806C181.896 134.933 183.396 136.749 185.315 138.026C187.235 139.303 189.489 139.985 191.795 139.985C193.358 140.023 194.913 139.74 196.363 139.153C197.813 138.567 199.127 137.689 200.223 136.574C201.32 135.459 202.176 134.13 202.739 132.671C203.302 131.212 203.559 129.653 203.495 128.09" fill="#06231A"/>
<path d="M230.45 142.37V113.87H232.595L245.54 128.54C247.43 130.715 249.275 132.86 251.18 135.005H251.3V113.825H254.6V143H254L239.645 126.785L233.96 120.335H233.84V142.43L230.45 142.37Z" fill="#06231A"/>
<path d="M279.5 142.37V113.87H287.21C297.965 113.87 303.575 118.835 303.575 127.985C303.575 137.135 297.575 142.415 287.21 142.415L279.5 142.37ZM282.86 139.265H286.685C295.685 139.265 300.065 135.68 300.065 127.85C300.065 120.35 295.955 116.93 286.685 116.93H282.86V139.265Z" fill="#06231A"/>
<path d="M104.915 162.68C104.88 161.727 105.04 160.778 105.385 159.889C105.73 159 106.252 158.191 106.921 157.512C107.589 156.832 108.389 156.296 109.272 155.936C110.155 155.577 111.102 155.401 112.055 155.42C113.355 155.358 114.645 155.677 115.767 156.338C116.889 156.999 117.793 157.973 118.37 159.14L117.26 159.92L116.93 159.845C116.493 158.941 115.802 158.185 114.941 157.668C114.081 157.151 113.088 156.896 112.085 156.935C110.561 156.935 109.1 157.54 108.023 158.618C106.945 159.695 106.34 161.156 106.34 162.68C106.34 164.204 106.945 165.665 108.023 166.742C109.1 167.82 110.561 168.425 112.085 168.425C113.101 168.5 114.115 168.269 114.998 167.761C115.88 167.253 116.59 166.491 117.035 165.575L117.365 165.485L118.43 166.265C117.84 167.429 116.929 168.399 115.804 169.061C114.68 169.723 113.389 170.049 112.085 170C111.128 170.023 110.177 169.85 109.289 169.491C108.402 169.133 107.597 168.596 106.926 167.914C106.254 167.232 105.729 166.42 105.383 165.528C105.037 164.635 104.878 163.681 104.915 162.725" fill="#06231A"/>
<path d="M126.17 162.68C126.167 161.229 126.595 159.809 127.399 158.601C128.203 157.393 129.347 156.45 130.687 155.893C132.028 155.335 133.503 155.188 134.927 155.469C136.35 155.75 137.659 156.448 138.686 157.473C139.713 158.498 140.414 159.805 140.698 161.228C140.982 162.652 140.838 164.127 140.283 165.468C139.728 166.81 138.788 167.956 137.582 168.763C136.375 169.569 134.956 170 133.505 170C132.538 170.033 131.574 169.868 130.673 169.515C129.772 169.162 128.953 168.628 128.266 167.947C127.579 167.265 127.039 166.45 126.678 165.552C126.318 164.654 126.145 163.692 126.17 162.725M139.16 162.725C139.136 161.612 138.785 160.531 138.149 159.617C137.513 158.703 136.622 157.996 135.587 157.587C134.552 157.177 133.419 157.082 132.33 157.314C131.241 157.545 130.245 158.093 129.466 158.888C128.687 159.684 128.16 160.692 127.951 161.785C127.743 162.879 127.861 164.009 128.293 165.036C128.724 166.062 129.449 166.938 130.376 167.555C131.303 168.171 132.392 168.5 133.505 168.5C134.26 168.517 135.01 168.379 135.71 168.095C136.41 167.811 137.044 167.387 137.574 166.849C138.103 166.311 138.517 165.67 138.79 164.966C139.063 164.262 139.189 163.51 139.16 162.755" fill="#06231A"/>
<path d="M149.45 155.795H151.055V168.095H157.58L157.415 169.58H149.45V155.795Z" fill="#06231A"/>
<path d="M165.32 155.795H166.94V168.095H173.465L173.285 169.58H165.32V155.795Z" fill="#06231A"/>
<path d="M181.205 155.795H189.125L189.305 157.265H182.825V161.765H188.84V163.25H182.825V168.095H189.305L189.125 169.58H181.205V155.795Z" fill="#06231A"/>
<path d="M197.45 162.68C197.417 161.727 197.579 160.777 197.926 159.888C198.272 158.999 198.796 158.19 199.466 157.511C200.135 156.832 200.937 156.296 201.82 155.936C202.704 155.577 203.651 155.401 204.605 155.42C205.905 155.358 207.196 155.677 208.317 156.338C209.439 156.999 210.343 157.973 210.92 159.14L209.81 159.92L209.465 159.845C209.03 158.94 208.339 158.182 207.478 157.665C206.617 157.148 205.623 156.894 204.62 156.935C203.096 156.935 201.635 157.54 200.558 158.618C199.48 159.695 198.875 161.156 198.875 162.68C198.875 164.204 199.48 165.665 200.558 166.742C201.635 167.82 203.096 168.425 204.62 168.425C205.636 168.5 206.65 168.269 207.533 167.761C208.416 167.253 209.125 166.491 209.57 165.575L209.9 165.485L210.98 166.265C210.379 167.423 209.459 168.385 208.33 169.039C207.201 169.693 205.909 170.01 204.605 169.955C203.648 169.978 202.697 169.805 201.809 169.446C200.922 169.088 200.117 168.551 199.446 167.869C198.774 167.187 198.249 166.375 197.903 165.483C197.557 164.59 197.398 163.636 197.435 162.68" fill="#06231A"/>
<path d="M222.605 157.265H217.85V155.795H228.965V157.265H224.225V169.58H222.605V157.265Z" fill="#06231A"/>
<path d="M238.325 155.795H236.705V169.58H238.325V155.795Z" fill="#06231A"/>
<path d="M246.935 162.68C246.923 161.227 247.343 159.803 248.142 158.589C248.941 157.375 250.082 156.425 251.421 155.861C252.76 155.296 254.237 155.142 255.664 155.419C257.091 155.695 258.403 156.389 259.435 157.412C260.467 158.435 261.171 159.742 261.459 161.167C261.747 162.591 261.606 164.069 261.052 165.413C260.499 166.757 259.559 167.906 258.351 168.714C257.144 169.523 255.723 169.955 254.27 169.955C253.303 169.988 252.339 169.823 251.438 169.47C250.538 169.117 249.718 168.583 249.031 167.902C248.344 167.22 247.804 166.405 247.443 165.507C247.083 164.609 246.91 163.647 246.935 162.68ZM259.925 162.68C259.907 161.565 259.561 160.481 258.929 159.563C258.296 158.645 257.407 157.934 256.372 157.52C255.338 157.106 254.204 157.007 253.113 157.235C252.022 157.463 251.022 158.009 250.241 158.803C249.459 159.597 248.929 160.605 248.718 161.699C248.507 162.794 248.624 163.926 249.055 164.954C249.485 165.982 250.21 166.86 251.138 167.478C252.066 168.095 253.155 168.425 254.27 168.425C255.025 168.442 255.775 168.304 256.475 168.02C257.175 167.736 257.809 167.312 258.339 166.774C258.868 166.236 259.282 165.595 259.555 164.891C259.828 164.187 259.954 163.434 259.925 162.68" fill="#06231A"/>
<path d="M270.2 169.58V155.795H271.235L277.49 162.875L280.22 165.995V155.795H281.81V169.85H281.48L274.55 162.02L271.805 158.9V169.58H270.2Z" fill="#06231A"/>
<path d="M290.39 167L291.56 166.205L291.89 166.295C292.137 166.945 292.577 167.505 293.151 167.899C293.724 168.293 294.404 168.503 295.1 168.5C295.436 168.522 295.773 168.477 296.091 168.367C296.409 168.257 296.702 168.084 296.952 167.859C297.203 167.634 297.405 167.361 297.548 167.056C297.691 166.752 297.772 166.421 297.785 166.085C297.785 164.84 297.17 164 294.665 162.965C291.815 161.78 290.825 160.55 290.825 158.795C290.825 157.04 292.325 155.39 294.92 155.39C295.715 155.34 296.508 155.515 297.208 155.894C297.908 156.273 298.488 156.842 298.88 157.535L297.74 158.315H297.41C297.176 157.851 296.815 157.464 296.369 157.198C295.922 156.932 295.409 156.799 294.89 156.815C293.39 156.815 292.505 157.64 292.505 158.78C292.505 159.92 293.075 160.43 295.505 161.54C298.685 163.04 299.465 164.165 299.465 166.04C299.439 166.581 299.304 167.111 299.07 167.599C298.836 168.087 298.506 168.523 298.101 168.883C297.696 169.242 297.223 169.516 296.71 169.69C296.198 169.864 295.655 169.934 295.115 169.895C294.127 169.949 293.145 169.701 292.301 169.184C291.457 168.667 290.791 167.905 290.39 167" fill="#06231A"/>
<path d="M93.95 162.17H5.47998V165.71H93.95V162.17Z" fill="#06231A"/>
<path d="M0.0349121 101.69L45.3799 0.5L91.8799 101.69H75.0949L66.3949 82.61H15.3949L6.81491 101.69H0.0349121ZM17.7349 77.36H63.9049L40.5349 26.48L17.7349 77.36Z" fill="#06231A"/>
<path d="M174.095 32.4351V101.69H160.265V96.2901C155.555 100.953 149.207 103.586 142.58 103.625C122.945 103.625 115.07 92.0151 115.07 80.9451L115.205 46.5351C115.196 43.1687 113.929 39.9272 111.654 37.4463C109.378 34.9655 106.258 33.4243 102.905 33.1251V32.4351H129.035V80.1201C129.035 93.2451 136.775 97.1301 142.715 97.1301C151.01 97.1301 156.68 94.6401 160.265 90.2151V32.4351H174.095Z" fill="#06231A"/>
<path d="M235.895 32.5699V40.8649C225.815 40.8649 214.895 39.3649 211.295 60.2149V101.69H197.465V46.5349C197.423 43.1919 196.141 39.9836 193.869 37.5312C191.597 35.0789 188.495 33.5569 185.165 33.2599V32.5699H211.295V50.5699C215.3 35.7799 223.73 32.5699 235.895 32.5699" fill="#06231A"/>
<path d="M296.18 52.895L296 101.69H282.17V91.46C274.85 102.8 238.67 114.965 238.67 84.125C238.67 60.125 263.69 62.57 282.17 55.625V48.875C282.17 40.31 278.585 36.17 269.45 36.17C264.755 36.17 254.66 35.75 247.745 45.845L243.875 44.735C249.965 33.68 260.75 31.88 269.18 31.88C289.085 31.88 296.18 40.04 296.18 52.88M282.215 87.71V59.66C268.25 64.16 253.715 64.16 253.715 82.88C253.715 101.27 269.75 102.245 282.215 87.725" fill="#06231A"/>
</svg>
