<svg width="417" height="158" viewBox="0 0 417 158" fill="none" xmlns="http://www.w3.org/2000/svg">
<path d="M268.614 128.478C268.614 135.208 264.596 138.168 259.668 138.168C254.741 138.168 250.69 135.208 250.69 128.478C250.69 121.748 254.642 118.822 259.602 118.822C264.563 118.822 268.548 121.897 268.548 128.478M264.463 128.478C264.463 122.509 262.81 119.649 259.602 119.649C256.394 119.649 254.724 122.542 254.724 128.478C254.724 134.414 256.411 137.242 259.602 137.242C262.793 137.242 264.563 134.646 264.563 128.478" fill="#0B1B13"/>
<path d="M276.683 114.77V118.822H280.37V120.244H276.683V137.655H272.929V120.244H269.358V118.822H272.929V115.862C272.929 112.737 274.583 110.025 279.279 110.025C280.414 110.011 281.539 110.23 282.586 110.67C282.354 110.934 282.139 111.199 281.941 111.463C281.226 111.18 280.461 111.039 279.692 111.05C277.212 111.05 276.749 112.207 276.749 114.77" fill="#0B1B13"/>
<path d="M312.118 117.879C312.118 125.816 303.354 125.287 299.038 125.287V137.655H294.905V110.14H299.038C303.354 110.14 312.118 110.025 312.118 117.879M307.637 117.879C307.455 111.827 302.792 111.463 301.965 111.463H299.038V123.815H301.965C303.47 123.815 307.835 123.815 307.637 117.879Z" fill="#0B1B13"/>
<path d="M315.111 132.017V118.789H318.864V131.785C318.864 135.357 320.964 136.415 322.584 136.415C323.478 136.5 324.379 136.374 325.215 136.047C326.051 135.719 326.798 135.2 327.396 134.53V118.822H331.166V137.655H327.396V136.184C326.12 137.449 324.398 138.161 322.601 138.168C317.26 138.168 315.111 135.026 315.111 132.017Z" fill="#0B1B13"/>
<path d="M344.609 118.854V121.12C341.864 121.12 338.888 120.706 337.995 126.378V137.655H334.241V118.854H337.995V123.815C339.086 119.797 341.302 118.854 344.609 118.854Z" fill="#0B1B13"/>
<path d="M352.298 113.381C352.298 114.004 352.05 114.601 351.61 115.042C351.17 115.482 350.573 115.729 349.95 115.729C349.327 115.729 348.73 115.482 348.29 115.042C347.849 114.601 347.602 114.004 347.602 113.381C347.602 112.759 347.849 112.161 348.29 111.721C348.73 111.281 349.327 111.033 349.95 111.033C350.573 111.033 351.17 111.281 351.61 111.721C352.05 112.161 352.298 112.759 352.298 113.381M351.818 137.655H348.065V118.822H351.818V137.655Z" fill="#0B1B13"/>
<path d="M367.328 135.588C366.744 136.456 365.945 137.157 365.009 137.623C364.073 138.09 363.032 138.306 361.987 138.25C358.532 138.25 358.383 136.448 358.383 134.695V120.26H355.307V118.822H358.383V114.093H362.12V118.822H366.138V120.26H362.12V133.935C362.12 135.026 361.855 136.564 363.161 136.911C363.833 137 364.515 136.874 365.109 136.55C365.704 136.226 366.18 135.721 366.468 135.109L367.328 135.588Z" fill="#0B1B13"/>
<path d="M387.435 118.854L377.134 145.84H375.596L378.754 137.655L369.577 118.854H373.744L380.59 132.843L385.93 118.854H387.435Z" fill="#0B1B13"/>
<path d="M233.84 127.883H20.0735V130.429H233.84V127.883Z" fill="#0B1B13"/>
<path d="M269.11 28.9696C273.65 30.8142 277.93 33.2433 281.842 36.1955H275.922C279.929 30.7795 284.545 25.8417 289.679 21.4792C294.86 16.8722 300.765 13.1515 307.157 10.4668L307.57 10.8802C305.239 13.2282 302.941 15.7415 300.56 18.1887C293.945 24.8028 285.942 33.0703 279.213 39.5687L278.882 39.8994L278.535 39.5687C276.054 37.0719 271.11 31.9956 268.696 29.4491L269.11 28.9696Z" fill="#00A651"/>
<path d="M74.0942 48.7291C74.0942 71.2169 49.2914 69.7288 37.0885 69.7288V104.816H25.3651V37.7498C25.3574 35.142 24.3826 32.6298 22.6293 30.6993C20.876 28.7689 18.4689 27.5575 15.8739 27.2996V26.7539H37.0885C49.3576 26.7539 74.0942 26.4397 74.0942 48.7291M61.5109 48.7291C60.8661 31.5656 47.6545 30.5404 45.4057 30.5404H37.1381V65.5784H45.4057C49.6718 65.5784 62.04 65.3635 61.5109 48.7291" fill="#0B1B13"/>
<path d="M121.748 51.4902V57.8728C113.96 57.8728 105.544 56.6988 102.766 72.7544V104.816H92.1007V62.2712C92.0675 59.7034 91.087 57.2384 89.3475 55.3493C87.608 53.4602 85.232 52.2802 82.6757 52.0359V51.4902H102.766V65.3632C105.858 53.954 112.356 51.4902 121.748 51.4902Z" fill="#0B1B13"/>
<path d="M174.743 78.7901C174.743 97.8882 163.318 106.305 149.362 106.305C135.406 106.305 123.881 97.8882 123.881 78.7901C123.881 60.3534 135.274 51.3914 149.362 51.3914C163.45 51.3914 174.743 60.1385 174.743 78.7901M163.169 78.7901C163.169 61.8416 158.688 53.7393 149.412 53.7393C140.135 53.7393 135.539 62.0069 135.539 78.7901C135.539 96.2843 140.135 103.857 149.412 103.857C158.688 103.857 163.169 96.2843 163.169 78.7901" fill="#0B1B13"/>
<path d="M264.397 68.8855L264.298 104.816H253.633V69.4477C253.633 59.3282 247.663 54.8472 243.083 54.8472C240.463 54.7906 237.871 55.4032 235.554 56.6271C233.236 57.851 231.269 59.6457 229.838 61.8416L229.723 104.833H219.058V69.4477C219.058 59.3282 213.088 54.8472 208.508 54.8472C205.88 54.8688 203.291 55.4944 200.943 56.6756C198.595 57.8569 196.55 59.5621 194.966 61.6597V104.816H184.301V62.2715C184.31 59.6689 183.338 57.1584 181.579 55.2402C179.82 53.3219 177.403 52.1367 174.809 51.9205V51.3914H194.966V57.0464C198.603 53.4574 203.497 51.4287 208.607 51.3914C218.214 51.3914 224.183 54.4834 227.275 59.1794C229.205 56.7861 231.638 54.8474 234.401 53.5013C237.165 52.1552 240.191 51.4348 243.265 51.3914C258.411 51.3914 264.48 60.3534 264.48 68.8855" fill="#0B1B13"/>
<path d="M288.803 51.0769V104.816H278.138V61.9405C278.12 59.3473 277.139 56.8534 275.384 54.9435C273.63 53.0335 271.229 51.844 268.646 51.606V51.0769H288.803Z" fill="#0B1B13"/>
<path d="M340.624 92.2332C340.624 100.98 330.604 106.305 317.706 106.305C309.918 106.305 298.724 102.568 298.724 91.1584H302.99C302.99 100.12 311.72 102.733 317.871 102.898C325.23 102.898 330.885 99.9055 330.885 94.9945C330.885 88.0663 325.13 86.9088 315.54 82.6428C309.455 79.9641 298.691 75.3838 298.691 65.3635C298.691 57.5755 305.933 50.9614 319.69 50.9614C323.526 50.9614 336.854 52.0362 336.854 63.8588H333.133C333.133 55.7566 323.642 53.9378 319.806 53.9378C313.291 53.9378 308.231 56.5007 308.231 62.2053C308.231 67.91 314.846 69.9934 322.518 73.6146C333.613 78.8397 340.541 82.4774 340.541 92.2828" fill="#0B1B13"/>
<path d="M358.813 76.3429V78.7902C358.813 98.4174 376.621 113.349 393.255 93.9363L395.058 95.5899C394.429 96.9788 388.444 106.255 373.099 106.255C356.68 106.255 347.073 94.3167 347.073 78.7405C347.073 63.1644 356.68 51.3418 373.099 51.3418C392.726 51.3418 395.173 66.3722 395.173 72.2422V76.2933L358.813 76.3429ZM359.127 72.2918H382.375C382.16 60.7172 380.242 55.1283 373.198 55.1283C366.485 55.1283 360.516 58.8488 359.127 72.2918Z" fill="#0B1B13"/>
</svg>
